<?xml version="1.0" encoding="UTF-8" standalone="no"?>
<!-- Created with Inkscape (http://www.inkscape.org/) -->

<svg
   xmlns:dc="http://purl.org/dc/elements/1.1/"
   xmlns:cc="http://creativecommons.org/ns#"
   xmlns:rdf="http://www.w3.org/1999/02/22-rdf-syntax-ns#"
   xmlns:svg="http://www.w3.org/2000/svg"
   xmlns="http://www.w3.org/2000/svg"
   xmlns:sodipodi="http://sodipodi.sourceforge.net/DTD/sodipodi-0.dtd"
   xmlns:inkscape="http://www.inkscape.org/namespaces/inkscape"
   width="327.63333"
   height="180.83539"
   id="svg5447"
   version="1.1"
   inkscape:version="0.47pre0"
   sodipodi:docname="New document 4"
   inkscape:output_extension="org.inkscape.output.svg.inkscape">
  <defs
     id="defs5449">
    <inkscape:perspective
       sodipodi:type="inkscape:persp3d"
       inkscape:vp_x="0 : 526.18109 : 1"
       inkscape:vp_y="0 : 1000 : 0"
       inkscape:vp_z="744.09448 : 526.18109 : 1"
       inkscape:persp3d-origin="372.04724 : 350.78739 : 1"
       id="perspective5455" />
    <inkscape:perspective
       id="perspective5465"
       inkscape:persp3d-origin="0.5 : 0.33333333 : 1"
       inkscape:vp_z="1 : 0.5 : 1"
       inkscape:vp_y="0 : 1000 : 0"
       inkscape:vp_x="0 : 0.5 : 1"
       sodipodi:type="inkscape:persp3d" />
  </defs>
  <sodipodi:namedview
     id="base"
     pagecolor="#ffffff"
     bordercolor="#666666"
     borderopacity="1.0"
     inkscape:pageopacity="0.0"
     inkscape:pageshadow="2"
     inkscape:zoom="1.4"
     inkscape:cx="106.37427"
     inkscape:cy="181.86132"
     inkscape:document-units="px"
     inkscape:current-layer="layer1"
     showgrid="false"
     inkscape:window-width="1197"
     inkscape:window-height="955"
     inkscape:window-x="451"
     inkscape:window-y="22"
     inkscape:window-maximized="0" />
  <metadata
     id="metadata5452">
    <rdf:RDF>
      <cc:Work
         rdf:about="">
        <dc:format>image/svg+xml</dc:format>
        <dc:type
           rdf:resource="http://purl.org/dc/dcmitype/StillImage" />
        <dc:title></dc:title>
      </cc:Work>
    </rdf:RDF>
  </metadata>
  <g
     inkscape:label="Layer 1"
     inkscape:groupmode="layer"
     id="layer1"
     transform="translate(-82.111915,-365.64789)">
    <path
       id="path5557"
       d="M 222.16858,545.75191 C 190.13243,542.30668 156.16889,533.3541 135.25876,522.84299 118.58373,514.4608 100.54477,499.63047 92.556289,487.73611 81.27704,470.94199 79.530272,452.13863 87.515278,433.47136 c 7.866937,-18.39124 32.870752,-38.82923 61.108482,-49.94977 13.67171,-5.38418 34.98325,-11.00911 53.74482,-14.18531 17.71692,-2.99935 20.24825,-3.1844 43.56,-3.1844 23.31175,0 25.84308,0.18505 43.56,3.1844 25.93484,4.39059 50.43076,11.73399 67.10982,20.11821 16.67503,8.38219 34.71399,23.21252 42.70246,35.10687 11.27925,16.79413 13.02602,35.59748 5.04102,54.26475 -7.86694,18.39124 -32.87075,38.82924 -61.10848,49.94978 -13.67136,5.38404 -34.98167,11.00638 -53.24982,14.04899 -15.363,2.55877 -21.66592,3.10913 -39.105,3.41459 -11.4345,0.2003 -24.354,-0.0191 -28.71,-0.48756 z"
       style="fill:#bea06a"
       sodipodi:nodetypes="csssssssssssssc" />
    <path
       id="path5555"
       d="m 222.42858,545.51218 c -23.21469,-2.37597 -57.71486,-10.3933 -74.96229,-17.42014 -40.7617,-16.60685 -65.354375,-43.67924 -65.354375,-71.94415 0,-28.26491 24.592675,-55.3373 65.354375,-71.94415 25.23308,-10.28029 69.1454,-18.55585 98.46229,-18.55585 29.31689,0 73.22921,8.27556 98.46228,18.55585 40.7617,16.60685 65.35438,43.67924 65.35438,71.94415 0,28.26491 -24.59268,55.3373 -65.35438,71.94415 -17.93983,7.30893 -51.95227,15.07117 -76.81823,17.53128 -12.02324,1.18952 -32.93891,1.13803 -45.14405,-0.11114 z m 46.78941,-7.91881 c 24.6835,-2.68049 46.07266,-8.75866 66.71059,-18.95718 32.59643,-16.10799 49.74455,-38.00317 49.72349,-63.4883 -0.0125,-15.11473 -6.01105,-28.05215 -19.22349,-41.46038 -38.66563,-39.23857 -122.78817,-52.65599 -188.36541,-30.044 -33.30409,11.48373 -55.84513,28.66454 -66.2612,50.50438 -19.728426,41.36542 20.28799,85.96186 89.67726,99.94115 6.90286,1.39067 16.35286,2.92552 21,3.41079 12.17615,1.27147 35.46256,1.31808 46.73876,0.0935 z m -44.78941,-2.05953 c -35.31265,-4.02364 -68.49555,-18.19207 -87.60257,-37.40454 -21.06396,-21.18021 -25.28096,-47.47762 -11.38597,-71.00357 4.6476,-7.86897 17.82175,-21.16263 26.48854,-26.72883 35.99484,-23.1175 88.23959,-31.55136 135.01158,-21.7949 53.39088,11.13714 88.68463,41.56267 88.79356,76.54589 0.0341,10.94012 -2.30776,18.53416 -9.08658,29.46577 -13.67204,22.04772 -40.50724,38.59031 -76.23434,46.99473 -18.76134,4.4134 -46.97255,6.09171 -65.98422,3.92545 z m 58.32461,-15.2895 c 1.28856,-3.35792 -0.46958,-5.46181 -5.45825,-6.53169 -6.31119,-1.35351 -12.49934,-4.51045 -13.87321,-7.07756 -0.59439,-1.11062 -0.94413,-5.68505 -0.78344,-10.24674 l 0.29029,-8.24046 12.5,-0.26942 c 15.15385,-0.32663 17.552,0.62668 23.5587,9.36499 2.88542,4.19758 4.78918,5.99132 6.5856,6.20499 4.55205,0.54144 4.92293,-1.13565 4.62872,-20.93076 l -0.27302,-18.3698 -3.18844,-0.30877 c -2.58761,-0.25058 -3.51664,0.22052 -4.9301,2.5 -6.78362,10.93996 -10.9663,12.28833 -37.38146,12.05067 -10.725,-0.0965 -20.92639,0.17493 -22.66976,0.60316 l -3.16976,0.7786 -0.33024,12.36066 c -0.30615,11.45899 -0.50638,12.54793 -2.74495,14.92794 -2.75281,2.92676 -10.4396,6.06845 -17.4024,7.11258 -4.93737,0.74041 -7.20676,2.94641 -6.07232,5.90272 0.53272,1.38822 4.67875,1.57244 35.38943,1.57244 28.93597,0 34.8766,-0.23604 35.32461,-1.40355 z m -92.43814,-43.53569 c 0.96524,-0.51658 2.59636,-2.80508 3.62471,-5.08555 2.12865,-4.7205 0.98604,-4.65917 16.48882,-0.88512 13.79177,3.35752 37.94543,3.40232 49.45493,0.0917 28.6397,-8.2379 39.2416,-26.18065 24.89678,-42.13554 -8.68751,-9.6626 -19.01892,-12.54801 -49.57132,-13.84451 -17.17358,-0.72877 -19.98788,-1.07958 -21.79734,-2.71712 -2.77134,-2.50803 -2.20997,-6.24647 1.33356,-8.88074 2.38203,-1.77082 4.56074,-2.14925 14.12088,-2.45273 13.92586,-0.44207 23.6633,1.73182 37.40164,8.34992 7.44702,3.58745 10.41056,4.49893 14.62755,4.49893 3.3117,0 5.72251,-0.52303 6.44973,-1.39929 0.74951,-0.9031 1.05888,-4.71501 0.87245,-10.75 l -0.28886,-9.35071 -9.86809,-0.28764 c -7.58044,-0.22095 -10.41379,0.0699 -12.22206,1.25475 -2.12545,1.39265 -3.25463,1.38349 -11.63191,-0.0944 -11.92621,-2.10397 -32.83706,-2.11695 -42.35829,-0.0263 -19.94083,4.37859 -32.10157,12.89242 -33.93764,23.76003 -1.07824,6.38207 2.62985,12.62939 9.57595,16.13337 9.10737,4.59424 17.97542,5.87549 45.94204,6.63765 21.81403,0.59449 26.04705,0.96151 29.28458,2.53908 2.08151,1.01428 4.26021,2.73287 4.84153,3.81909 2.77814,5.19099 -2.64463,13.17132 -11.12984,16.37905 -6.72403,2.54193 -25.9506,2.25811 -36.49627,-0.53876 -9.96451,-2.64274 -19.59874,-7.0965 -25.09718,-11.60205 -5.23464,-4.2894 -8.92507,-5.73773 -12.57654,-4.93573 l -2.82628,0.62075 0,15.25388 c 0,8.38963 0.3,15.55388 0.66667,15.92054 0.99637,0.99638 8.20815,0.80403 10.2198,-0.27257 z m 153.91353,-3.26076 c 1.26193,-1.26193 1.76112,-24.17416 0.59301,-27.21821 -0.53004,-1.38127 -3.63351,-1.58179 -24.48095,-1.58179 l -23.87396,0 -0.4909,2.25 c -0.60288,2.76325 -0.82163,4.87653 -0.66568,6.43119 0.0842,0.83928 4.74577,1.27347 16.10453,1.5 l 15.98606,0.31881 3.46709,3.5 c 2.26753,2.28905 3.89877,5.22992 4.71476,8.5 0.68621,2.75 1.6624,5.5625 2.1693,6.25 1.17119,1.58848 4.9094,1.61734 6.47674,0.05 z m -86.3,-15.39871 c 4.89766,-2.55108 7.50029,-6.58285 5.90184,-9.14266 -2.36709,-3.79076 -5.23498,-4.26153 -24.40184,-4.00563 l -18.5,0.247 0,4 0,4 5.5,0.63559 c 7.00473,0.80947 8.50297,1.4569 10.52977,4.55019 1.5652,2.3888 2.04235,2.49942 9.30999,2.15843 5.25429,-0.24653 8.91657,-1.01381 11.66024,-2.44292 z"
       style="fill:#b1091b" />
    <path
       id="path5553"
       d="m 222.42858,545.51218 c -23.21469,-2.37597 -57.71486,-10.3933 -74.96229,-17.42014 -40.7617,-16.60685 -65.354375,-43.67924 -65.354375,-71.94415 0,-28.26491 24.592675,-55.3373 65.354375,-71.94415 25.23308,-10.28029 69.1454,-18.55585 98.46229,-18.55585 29.31689,0 73.22921,8.27556 98.46228,18.55585 40.7617,16.60685 65.35438,43.67924 65.35438,71.94415 0,28.26491 -24.59268,55.3373 -65.35438,71.94415 -17.93983,7.30893 -51.95227,15.07117 -76.81823,17.53128 -12.02324,1.18952 -32.93891,1.13803 -45.14405,-0.11114 z m 46.78941,-7.91881 c 24.6835,-2.68049 46.07266,-8.75866 66.71059,-18.95718 32.59643,-16.10799 49.74455,-38.00317 49.72349,-63.4883 -0.0125,-15.11473 -6.01105,-28.05215 -19.22349,-41.46038 -38.79671,-39.37159 -122.72357,-52.67827 -188.72003,-29.92173 -48.13571,16.5979 -75.70119,47.86654 -70.30605,79.75101 6.22349,36.77981 53.05812,67.02788 114.52608,73.96646 11.41588,1.28864 35.91169,1.34568 47.28941,0.11012 z M 211.0943,524.83101 c -1.05652,-1.16744 -1.66572,-3.55806 -1.66572,-6.53661 0,-4.12073 0.31424,-4.81548 2.5651,-5.67126 1.4108,-0.53639 3.57913,-0.97525 4.8185,-0.97525 4.13439,0 12.48506,-3.01861 15.59884,-5.63868 l 3.07729,-2.58936 -0.27987,-12.13598 -0.27986,-12.13598 -7.12724,-0.71106 c -3.91998,-0.39109 -10.44498,-1.42011 -14.5,-2.28673 -4.05502,-0.86662 -8.54838,-1.82801 -9.98524,-2.13643 -2.14205,-0.45979 -3.0358,0.042 -4.96329,2.78672 -3.58324,5.10248 -4.92551,5.78128 -11.49992,5.8157 -5.08188,0.0266 -6.43134,-0.34678 -8.25,-2.28265 -2.04659,-2.1785 -2.17431,-3.26041 -2.17431,-18.41821 0,-8.85707 0.27314,-16.81557 0.60699,-17.68555 0.4587,-1.19537 2.05008,-1.58179 6.51413,-1.58179 5.50036,0 6.28095,0.30447 11.33552,4.42148 8.48338,6.9098 25.54336,14.08877 25.54336,10.74883 0,-0.57875 -0.45,-1.33039 -1,-1.67031 -0.55,-0.33992 -1.00689,-2.50398 -1.01531,-4.80902 -0.008,-2.30504 -0.38723,-4.77734 -0.84178,-5.49399 -0.45456,-0.71666 -3.93517,-1.7368 -7.73469,-2.26698 -13.04773,-1.82068 -24.55339,-6.20575 -29.11049,-11.09467 -5.67351,-6.08663 -6.70207,-14.62452 -2.72361,-22.60823 8.08745,-16.2294 40.03451,-24.66659 74.38477,-19.64495 9.86993,1.44288 11.09201,1.44288 13.88223,0 2.15462,-1.1142 5.84422,-1.58216 12.47436,-1.58216 8.04366,0 9.80278,0.30518 12.07883,2.09552 l 2.66402,2.09552 -0.27917,12.65448 -0.27916,12.65448 -6.75,0.29569 c -3.7125,0.16263 -6.75,0.50388 -6.75,0.75834 0,0.25446 2.8383,3.2714 6.30733,6.70431 3.46903,3.43291 7.29633,8.37916 8.50512,10.99166 l 2.1978,4.75 24.82056,0 c 31.79781,0 29.3291,-1.79891 28.94472,21.09163 l -0.27553,16.40837 -5.3753,0.3066 c -7.03929,0.40152 -9.45634,-1.73201 -11.03129,-9.73734 -1.54719,-7.86419 -3.46021,-9.4116 -12.24936,-9.90823 -7.96704,-0.45018 -10.22619,0.65424 -7.5001,3.66654 1.50334,1.66116 1.66589,4.31344 1.42637,23.27362 l -0.27032,21.39881 -4.71596,0.3034 c -6.22869,0.40072 -7.96293,-0.68675 -11.72459,-7.35206 -4.02487,-7.13168 -6.98318,-8.45134 -18.94554,-8.45134 -4.92269,0 -9.66214,0.27314 -10.53212,0.60699 -2.37031,0.90957 -2.23654,12.51681 0.16821,14.59642 2.12201,1.8351 7.71341,3.79659 10.8225,3.79659 1.25073,0 3.68083,1.18373 5.40024,2.63051 2.78923,2.34699 3.09391,3.12842 2.82672,7.25 l -0.29946,4.61949 -37.58428,0.26186 c -35.41686,0.24677 -37.68033,0.15572 -39.25,-1.57874 z m 71.65889,-4.58667 c 1.28856,-3.35792 -0.46958,-5.46181 -5.45825,-6.53169 -6.31119,-1.35351 -12.49934,-4.51045 -13.87321,-7.07756 -0.59439,-1.11062 -0.94413,-5.68505 -0.78344,-10.24674 l 0.29029,-8.24046 12.5,-0.26942 c 15.15385,-0.32663 17.552,0.62668 23.5587,9.36499 2.88542,4.19758 4.78918,5.99132 6.5856,6.20499 4.55205,0.54144 4.92293,-1.13565 4.62872,-20.93076 l -0.27302,-18.3698 -3.18844,-0.30877 c -2.58761,-0.25058 -3.51664,0.22052 -4.9301,2.5 -6.78362,10.93996 -10.9663,12.28833 -37.38146,12.05067 -10.725,-0.0965 -20.92639,0.17493 -22.66976,0.60316 l -3.16976,0.7786 -0.33024,12.36066 c -0.30615,11.45899 -0.50638,12.54793 -2.74495,14.92794 -2.75281,2.92676 -10.4396,6.06845 -17.4024,7.11258 -4.93737,0.74041 -7.20676,2.94641 -6.07232,5.90272 0.53272,1.38822 4.67875,1.57244 35.38943,1.57244 28.93597,0 34.8766,-0.23604 35.32461,-1.40355 z m -92.43814,-43.53569 c 0.96524,-0.51658 2.59636,-2.80508 3.62471,-5.08555 2.12865,-4.7205 0.98604,-4.65917 16.48882,-0.88512 13.79177,3.35752 37.94543,3.40232 49.45493,0.0917 28.6397,-8.2379 39.2416,-26.18065 24.89678,-42.13554 -8.68751,-9.6626 -19.01892,-12.54801 -49.57132,-13.84451 -17.17358,-0.72877 -19.98788,-1.07958 -21.79734,-2.71712 -2.77134,-2.50803 -2.20997,-6.24647 1.33356,-8.88074 2.38203,-1.77082 4.56074,-2.14925 14.12088,-2.45273 13.92586,-0.44207 23.6633,1.73182 37.40164,8.34992 7.44702,3.58745 10.41056,4.49893 14.62755,4.49893 3.3117,0 5.72251,-0.52303 6.44973,-1.39929 0.74951,-0.9031 1.05888,-4.71501 0.87245,-10.75 l -0.28886,-9.35071 -9.86809,-0.28764 c -7.58044,-0.22095 -10.41379,0.0699 -12.22206,1.25475 -2.12545,1.39265 -3.25463,1.38349 -11.63191,-0.0944 -11.92621,-2.10397 -32.83706,-2.11695 -42.35829,-0.0263 -19.94083,4.37859 -32.10157,12.89242 -33.93764,23.76003 -1.07824,6.38207 2.62985,12.62939 9.57595,16.13337 9.10737,4.59424 17.97542,5.87549 45.94204,6.63765 21.81403,0.59449 26.04705,0.96151 29.28458,2.53908 2.08151,1.01428 4.26021,2.73287 4.84153,3.81909 2.77814,5.19099 -2.64463,13.17132 -11.12984,16.37905 -6.72403,2.54193 -25.9506,2.25811 -36.49627,-0.53876 -9.96451,-2.64274 -19.59874,-7.0965 -25.09718,-11.60205 -5.23464,-4.2894 -8.92507,-5.73773 -12.57654,-4.93573 l -2.82628,0.62075 0,15.25388 c 0,8.38963 0.3,15.55388 0.66667,15.92054 0.99637,0.99638 8.20815,0.80403 10.2198,-0.27257 z m 94.20368,-1.07786 c 7.24352,-1.3737 12.6063,-5.09032 14.84821,-10.29038 0.99414,-2.30589 1.61315,-4.53002 1.37557,-4.94252 -0.23758,-0.4125 -2.16866,-0.75 -4.29129,-0.75 -3.106,0 -4.85305,0.84822 -8.95017,4.34546 -2.79996,2.39 -8.12421,5.84214 -11.83165,7.67142 -6.16957,3.04411 -6.52896,3.38773 -4.24082,4.05486 3.68136,1.07334 7.08379,1.05025 13.09015,-0.0888 z m 59.70985,-2.1829 c 1.26193,-1.26193 1.76112,-24.17416 0.59301,-27.21821 -0.53004,-1.38127 -3.63351,-1.58179 -24.48095,-1.58179 l -23.87396,0 -0.4909,2.25 c -0.60288,2.76325 -0.82163,4.87653 -0.66568,6.43119 0.0842,0.83928 4.74577,1.27347 16.10453,1.5 l 15.98606,0.31881 3.46709,3.5 c 2.26753,2.28905 3.89877,5.22992 4.71476,8.5 0.68621,2.75 1.6624,5.5625 2.1693,6.25 1.17119,1.58848 4.9094,1.61734 6.47674,0.05 z M 230.15955,459.9549 c -0.97297,-0.25354 -2.32297,-0.23687 -3,0.037 -0.67703,0.27393 0.11903,0.48137 1.76903,0.46099 1.65,-0.0204 2.20394,-0.2445 1.23097,-0.49804 z m 27.76903,-1.90572 c 4.89766,-2.55108 7.50029,-6.58285 5.90184,-9.14266 -2.36709,-3.79076 -5.23498,-4.26153 -24.40184,-4.00563 l -18.5,0.247 0,4 0,4 5.5,0.63559 c 7.00473,0.80947 8.50297,1.4569 10.52977,4.55019 1.5652,2.3888 2.04235,2.49942 9.30999,2.15843 5.25429,-0.24653 8.91657,-1.01381 11.66024,-2.44292 z m 10.5,-42.96401 c 0,-1.35848 -13.41105,-6.45969 -21.05378,-8.00831 -13.21031,-2.67675 -29.94622,-1.02041 -29.94622,2.96376 0,1.65089 8.16135,2.58306 23.39669,2.67231 8.56884,0.0502 25.53538,1.7844 27.35331,2.79586 0.1375,0.0765 0.25,-0.11412 0.25,-0.42362 z"
       style="fill:#221615" />
    <path
       style="fill:#ffffff;fill-opacity:1;stroke:#ffffff;stroke-width:1.78571427;stroke-miterlimit:4;stroke-opacity:1;stroke-dasharray:none"
       d="m 181.09311,476.63092 c -0.88293,-0.55791 -1.11529,-3.3044 -1.32071,-15.61059 l -0.24928,-14.93358 2.50328,-0.46961 c 3.48895,-0.65453 7.03081,0.7665 13.42363,5.38572 12.89733,9.31913 32.34314,14.35953 50.64308,13.1268 10.97,-0.73896 16.81972,-3.45469 20.53205,-9.532 3.91882,-6.41533 0.84032,-12.28986 -7.31777,-13.96415 -1.17857,-0.24187 -12.91071,-0.92561 -26.07143,-1.51941 -29.52186,-1.33201 -35.01298,-2.05953 -43.36543,-5.74551 -4.75436,-2.09813 -9.14511,-6.03473 -10.61701,-9.51887 -3.45127,-8.16951 2.79843,-18.32669 14.95843,-24.31084 15.454,-7.60519 32.6086,-9.33429 59.95629,-6.04333 8.31514,1.00063 9.40402,0.99767 11.97874,-0.0325 2.0771,-0.83109 5.30398,-1.13321 12.10344,-1.13321 l 9.27126,0 0,9.61773 c 0,11.13349 0.0228,11.09656 -6.84213,11.09656 -3.38912,0 -5.79133,-0.72711 -14.20497,-4.29962 -5.56933,-2.36478 -12.35317,-4.93932 -15.0752,-5.72119 -10.99675,-3.15871 -32.44688,-3.27318 -36.60668,-0.19535 -2.88197,2.13235 -3.85235,4.56479 -2.90508,7.28213 0.43138,1.23744 1.43533,2.59831 2.23101,3.02414 0.79568,0.42584 10.6458,1.39777 21.88916,2.15986 30.45446,2.06423 38.84368,4.27236 46.9216,12.35029 9.82704,9.82704 10.12294,20.89032 0.7998,29.90391 -4.93956,4.77556 -10.29681,7.93685 -18.45774,10.89185 -9.18544,3.32596 -14.84455,4.12368 -29.17834,4.113 -12.84914,-0.01 -19.94647,-0.76123 -29.28572,-3.10163 -2.94643,-0.73837 -6.59741,-1.42514 -8.1133,-1.52616 -2.9685,-0.19782 -3.04007,-0.13726 -6.26964,5.30568 -1.42519,2.40194 -2.44536,3.28589 -4.19643,3.6361 -3.23285,0.64657 -5.87637,0.55906 -7.13491,-0.23619 z"
       id="path6091" />
    <path
       style="fill:#ffffff;fill-opacity:1;stroke:#ffffff;stroke-width:1.78571427;stroke-miterlimit:4;stroke-opacity:1;stroke-dasharray:none"
       d="m 213.5704,520.31398 c -3.86391,-1.5531 -0.63247,-4.3302 7.37577,-6.33872 7.36295,-1.84668 14.00528,-5.14251 15.75935,-7.81955 0.95586,-1.45883 1.35869,-4.51492 1.84469,-13.99492 0.34198,-6.67069 0.78384,-12.29058 0.98191,-12.48865 0.19807,-0.19807 10.54932,-0.57383 23.00277,-0.83503 13.79443,-0.28931 23.89872,-0.80982 25.85694,-1.33197 5.17844,-1.38081 8.71905,-3.87139 12.0604,-8.48366 3.49259,-4.82103 4.17505,-5.25958 7.23313,-4.64796 l 2.13504,0.42701 -0.0712,16.875 c -0.0748,17.73752 -0.29723,19.84729 -2.21997,21.06012 -1.84694,1.16502 -3.96705,-0.43426 -9.03982,-6.81909 -6.17538,-7.77264 -6.6822,-7.95729 -22.77613,-8.29786 l -13.03572,-0.27585 -0.13695,4.17527 c -0.0753,2.29639 -0.0429,6.58598 0.072,9.53241 0.29069,7.45214 1.7844,8.98153 11.88605,12.16984 6.39352,2.01795 8.17888,3.16556 8.17888,5.25734 0,1.31013 -0.49139,1.77824 -2.23214,2.12639 -3.49858,0.69971 -65.07703,0.43258 -66.875,-0.29012 z"
       id="path6093" />
    <path
       style="fill:#ffffff;fill-opacity:1;stroke:#ffffff;stroke-width:1.78571427;stroke-miterlimit:4;stroke-opacity:1;stroke-dasharray:none"
       d="m 237.20689,457.85512 c -3.3663,-3.28364 -4.70906,-3.82141 -11.0021,-4.40629 l -4.95582,-0.46059 0,-3.826 0,-3.826 17.32143,0.004 c 9.82165,0.002 18.4832,0.32662 20.00465,0.74914 3.41472,0.9483 5.69127,3.30656 5.09584,5.27873 -1.40961,4.66887 -8.00808,7.97717 -17.31144,8.67948 l -6.40892,0.48381 -2.74364,-2.67627 0,0 z"
       id="path6095" />
    <path
       style="fill:#ffffff;fill-opacity:1;stroke:#ffffff;stroke-width:1.78571427;stroke-miterlimit:4;stroke-opacity:1;stroke-dasharray:none"
       d="m 338.67572,473.37947 c -0.43314,-0.29878 -1.35331,-2.31109 -2.04483,-4.4718 -1.63299,-5.10248 -3.96389,-9.09748 -6.92827,-11.8746 l -2.38222,-2.23173 -14.7152,-0.42849 c -8.09336,-0.23567 -15.27478,-0.64322 -15.95871,-0.90567 -1.03964,-0.39895 -1.16276,-1.01676 -0.75096,-3.76835 0.2709,-1.81014 0.64093,-3.53223 0.82229,-3.82688 0.58948,-0.95768 46.27715,-0.64685 47.24544,0.32143 0.93838,0.93839 1.12399,22.30211 0.22215,25.57143 -0.36527,1.3242 -1.03914,1.83381 -2.60737,1.9718 -1.16313,0.10235 -2.46917,-0.0584 -2.90232,-0.35714 z"
       id="path6097" />
  </g>
</svg>
