<?xml version="1.0" encoding="utf-8"?>
<!-- Generator: Adobe Illustrator 12.0.0, SVG Export Plug-In . SVG Version: 6.00 Build 51448)  -->
<!DOCTYPE svg PUBLIC "-//W3C//DTD SVG 1.1//EN" "http://www.w3.org/Graphics/SVG/1.1/DTD/svg11.dtd" [
	<!ENTITY ns_svg "http://www.w3.org/2000/svg">
	<!ENTITY ns_xlink "http://www.w3.org/1999/xlink">
]>
<svg  version="1.1" id="Layer_1" xmlns="&ns_svg;" xmlns:xlink="&ns_xlink;" width="190.572" height="127.661"
	 viewBox="0 0 190.572 127.661" overflow="visible" enable-background="new 0 0 190.572 127.661" xml:space="preserve">
<path fill="none" stroke="#002350" stroke-width="1.5735" stroke-miterlimit="2.6131" d="M0.872,66.178
	c3.614-1.382,9.707-5.208,13.176-8.848c3.233-4.018,6.125-8.997,9.024-15.505C27.714,31.48,37.811,18.272,58.794,9.541
	c14.058-6.97,40.905-12.636,72.518-5.362c15.041,2.797,45.316,15.627,53.66,36.879l-40.637,0.035
	c-9.977-9.416-37.781-19.951-68.44-8.655c-28.18,10.722-40.75,41.938-1.905,61.5c18.853,8.39,42.09,6.862,58.655-0.227
	c8.566-4.213,19.613-12.063,22.467-23.592l34.658,0.042c-0.188,9.38-4.569,17.995-8.76,22.976
	c-6.091,7.276-8.372,9.572-15.993,15.508c-17.143,12.256-36.178,18.379-62.846,18.227c-15.04-0.039-29.705-1.951-41.317-7.738
	c-14.363-5.264-27.995-17.765-30.847-21.786c-5.335-5.935-5.721-8.042-8.384-11.867c-4.191-7.47-5.901-9.189-8.188-11.493
	c-2.095-2.677-7.996-6.125-12.608-7.043L0.872,66.178L0.872,66.178z"/>
<path fill-rule="evenodd" clip-rule="evenodd" fill="#FFFFFF" stroke="#002350" stroke-width="1.5735" stroke-miterlimit="2.6131" d="
	M3.343,66.329c2.141,0.907,11.045,3.499,17.783,15.896c5.375,9.38,9.486,14.552,15.086,19.718
	c9.216,8.616,16.45,11.873,21.253,14.323c22.089,11.719,60.514,12.482,85.842,2.606c16.376-6.015,24.276-13.908,29.822-18.88
	c11.812-11.499,14.168-19.684,15.313-28.683h-32.186c-2.856,9.19-10.571,17.04-21.517,22.785c-16.189,7.748-40.56,9.572-58.846,1.95
	c-7.997-3.29-13.902-7.5-19.347-12.828C44.59,70.583,46.38,55.612,54.873,45.269c4.649-4.977,8.453-8.042,15.311-11.872
	c15.994-7.85,49.867-13.339,74.989,6.552h38.008c-6.092-13.404-23.689-23.783-29.589-26.505
	C137.026,4.486,102.646-2.98,69.614,6.669C61.516,8.987,52.09,13.68,43.903,19.19c-8.567,6.166-15.327,13.919-19.408,22.635
	c-2.109,4.592-2.682,6.508-5.576,11.1C13.054,62.696,3.343,66.329,3.343,66.329L3.343,66.329z"/>
<path fill-rule="evenodd" clip-rule="evenodd" fill="#F37021" d="M21.057,59.055c3.614-4.023,6.472-14.362,12.182-22.211
	C41.356,25.346,52.1,19.317,60.091,15.48c18.281-9.003,44.556-11.563,70.266-5.364c9.332,2.219,18.66,5.55,25.324,9.917
	c6.668,3.987,14.476,9.729,18.857,15.319h-27.467c-8.14-6.548-17.095-9.723-25.092-11.453c-8.95-2.295-23.044-3.52-39.804,0.503
	c-9.897,2.486-16.754,5.934-23.418,10.723c-13.141,9.376-27.615,34.038-1.906,55.486c8.379,7.122,15.427,9.418,23.233,12.135
	c14.47,4.218,32.564,3.413,43.036,0.54c15.811-4.216,21.709-9.767,26.85-14.172c4.758-4.592,8.759-10.148,9.865-13.015l22.547-0.045
	c-1.559,8.468-7.657,15.358-13.562,21.1c-6.758,6.413-11.803,9.771-21.783,14.786c-23.351,11.257-57.629,10.876-78.764,3.182
	c-10.85-3.986-13.898-5.793-22.085-11.495c-6.667-5.396-11.045-8.956-17.327-18.721c-2.859-4.789-4.192-7.47-7.431-11.871
	c-2.28-2.491-3.806-4.79-7.806-6.706C17.292,63.749,19.291,61.828,21.057,59.055L21.057,59.055z"/>
</svg>
