<?xml version="1.0" encoding="UTF-8" standalone="no"?>
<!-- Created with Inkscape (http://www.inkscape.org/) -->

<svg
   xmlns:dc="http://purl.org/dc/elements/1.1/"
   xmlns:cc="http://creativecommons.org/ns#"
   xmlns:rdf="http://www.w3.org/1999/02/22-rdf-syntax-ns#"
   xmlns:svg="http://www.w3.org/2000/svg"
   xmlns="http://www.w3.org/2000/svg"
   xmlns:sodipodi="http://sodipodi.sourceforge.net/DTD/sodipodi-0.dtd"
   xmlns:inkscape="http://www.inkscape.org/namespaces/inkscape"
   width="283.36288"
   height="215.48601"
   id="svg6099"
   version="1.1"
   inkscape:version="0.47pre0"
   sodipodi:docname="New document 7"
   inkscape:output_extension="org.inkscape.output.svg.inkscape">
  <defs
     id="defs6101">
    <inkscape:perspective
       sodipodi:type="inkscape:persp3d"
       inkscape:vp_x="0 : 526.18109 : 1"
       inkscape:vp_y="0 : 1000 : 0"
       inkscape:vp_z="744.09448 : 526.18109 : 1"
       inkscape:persp3d-origin="372.04724 : 350.78739 : 1"
       id="perspective6107" />
    <inkscape:perspective
       id="perspective6192"
       inkscape:persp3d-origin="74.918999 : 66.666667 : 1"
       inkscape:vp_z="149.838 : 100 : 1"
       inkscape:vp_y="0 : 1000 : 0"
       inkscape:vp_x="0 : 100 : 1"
       sodipodi:type="inkscape:persp3d" />
    <inkscape:perspective
       sodipodi:type="inkscape:persp3d"
       inkscape:vp_x="0 : 0.5 : 1"
       inkscape:vp_y="0 : 1000 : 0"
       inkscape:vp_z="1 : 0.5 : 1"
       inkscape:persp3d-origin="0.5 : 0.33333333 : 1"
       id="perspective5465" />
    <inkscape:perspective
       id="perspective5455"
       inkscape:persp3d-origin="372.04724 : 350.78739 : 1"
       inkscape:vp_z="744.09448 : 526.18109 : 1"
       inkscape:vp_y="0 : 1000 : 0"
       inkscape:vp_x="0 : 526.18109 : 1"
       sodipodi:type="inkscape:persp3d" />
    <inkscape:perspective
       id="perspective6276"
       inkscape:persp3d-origin="103 : 83.333333 : 1"
       inkscape:vp_z="206 : 125 : 1"
       inkscape:vp_y="0 : 1000 : 0"
       inkscape:vp_x="0 : 125 : 1"
       sodipodi:type="inkscape:persp3d" />
    <inkscape:perspective
       id="perspective6293"
       inkscape:persp3d-origin="0.5 : 0.33333333 : 1"
       inkscape:vp_z="1 : 0.5 : 1"
       inkscape:vp_y="0 : 1000 : 0"
       inkscape:vp_x="0 : 0.5 : 1"
       sodipodi:type="inkscape:persp3d" />
  </defs>
  <sodipodi:namedview
     id="base"
     pagecolor="#ffffff"
     bordercolor="#666666"
     borderopacity="1.0"
     inkscape:pageopacity="0.0"
     inkscape:pageshadow="2"
     inkscape:zoom="0.35"
     inkscape:cx="155.46866"
     inkscape:cy="126.43585"
     inkscape:document-units="px"
     inkscape:current-layer="layer1"
     showgrid="false"
     inkscape:window-width="986"
     inkscape:window-height="916"
     inkscape:window-x="527"
     inkscape:window-y="39"
     inkscape:window-maximized="0" />
  <metadata
     id="metadata6104">
    <rdf:RDF>
      <cc:Work
         rdf:about="">
        <dc:format>image/svg+xml</dc:format>
        <dc:type
           rdf:resource="http://purl.org/dc/dcmitype/StillImage" />
        <dc:title></dc:title>
      </cc:Work>
    </rdf:RDF>
  </metadata>
  <g
     inkscape:label="Layer 1"
     inkscape:groupmode="layer"
     id="layer1"
     transform="translate(-180.21777,-587.38176)">
    <g
       id="g6841"
       transform="matrix(0.75,0,0,0.75,80.474804,173.78119)">
      <path
         style="fill:#7e807e"
         d="m 265.42857,838.11723 c -8.5989,-1.31165 -25.99585,-7.18426 -32.94213,-11.12013 -3.05683,-1.73204 -9.0798,-5.54588 -13.38438,-8.4752 -4.30458,-2.92931 -8.24208,-5.06919 -8.75,-4.75527 -1.62705,1.00557 -1.00657,3.55463 0.79026,3.24655 0.94256,-0.16161 1.85818,0.40345 2.03472,1.2557 0.74207,3.58248 -21.64644,10.96511 -33.15843,10.93401 -9.91381,-0.0268 -17.59004,-6.17142 -17.59004,-14.08041 0,-1.44544 -1.27819,-5.7277 -2.84041,-9.51614 -3.4676,-8.40901 -5.57731,-16.85605 -4.74903,-19.01453 0.34824,-0.90748 -1.40333,-6.00592 -4.0327,-11.73838 -6.11158,-13.32421 -12.67464,-33.43668 -15.5583,-47.67837 -2.03611,-10.05583 -2.31106,-14.20523 -2.25003,-33.95572 0.0673,-21.79029 0.16575,-22.86297 3.11999,-34.00722 7.1715,-27.05296 18.95348,-46.99528 38.94026,-65.91072 45.85205,-43.39428 118.39845,-54.42196 174.43109,-26.51503 20.0166,9.96922 40.83179,28.39006 53.34817,47.21158 7.36516,11.07537 7.16453,10.96489 13.7913,7.5947 3.36103,-1.70932 6.24602,-1.75636 7.56231,-0.12331 3.21481,3.98846 16.56573,29.83178 16.97486,32.85815 0.4034,2.984 -0.0334,4.19143 -2.52494,6.97997 -2.59997,2.90988 -3.80858,3.44306 -8.82195,3.89185 l -5.80923,0.52003 -0.79668,3.85404 c -1.06085,5.13195 -3.97371,9.03323 -8.26502,11.06959 -1.93583,0.91861 -3.5138,1.98659 -3.50661,2.37329 0.007,0.38669 4.24746,10.82808 9.42281,23.20308 6.98413,16.70007 10.00961,22.83632 11.73692,23.80472 2.3703,1.3289 28.10804,1.10439 47.52845,-0.41458 8.1049,-0.63393 8.23572,-0.607 11.13459,2.29187 6.91016,6.91016 19.21297,55.40494 19.52966,76.98129 0.20429,13.91866 -1.62577,15.67168 -22.36551,21.42405 -6.325,1.7543 -12.85,3.37346 -14.5,3.59814 -1.65,0.22468 -6.825,1.15535 -11.5,2.06816 -12.691,2.47795 -33.00664,2.1926 -44.5,-0.62505 -15.3266,-3.75738 -30.7331,-13.05615 -37.5,-22.63354 -2.81917,-3.99005 -2.59587,-3.99126 -14,0.0758 -6.20815,2.214 -9.78656,2.76428 -20.77488,3.1947 l -13.27487,0.51998 -6.23364,6.10723 c -6.7407,6.60402 -15.33865,11.40058 -25.21661,14.06767 -7.37708,1.99184 -26.72864,2.77542 -35.5,1.43746 z m -86.75381,-15.39035 c -0.36256,-1.89662 -1.40964,-2.74374 -4.38008,-3.54359 -2.14698,-0.57813 -4.45342,-1.93152 -5.12541,-3.00754 -2.61102,-4.18091 -3.84414,-0.57511 -1.34519,3.93352 1.62261,2.92754 5.22903,5.02732 8.71582,5.07463 2.25037,0.0305 2.54546,-0.30909 2.13486,-2.45702 z m 284.25381,-0.66007 c 4.50181,-1.21321 5.02992,-1.65386 5.30031,-4.42256 0.27099,-2.77481 -0.39671,-3.59341 -6.83765,-8.38293 -6.21643,-4.62258 -17.96266,-17.13188 -17.96266,-19.12956 0,-1.66939 -3.73191,-1.7987 -12.3108,-0.42657 -5.05406,0.80836 -16.30148,2.36849 -24.99426,3.46696 -8.69278,1.09847 -16.23028,2.26001 -16.75,2.58122 -4.73092,2.92387 6.84312,16.08941 19.3774,22.04191 11.13226,5.28669 17.83033,6.44589 34.67766,6.00149 7.975,-0.21037 16.75,-0.98885 19.5,-1.72996 z M 175.3908,813.25998 c -3.67055,-3.13742 -4.96223,-3.6686 -4.96223,-2.04064 0,1.8136 3.95893,5 6.21223,5 2.00137,0 1.88223,-0.28206 -1.25,-2.95936 z m -8.49326,-4.79064 c -0.41132,-1.5125 -0.70597,-3.6317 -0.65479,-4.70934 0.11499,-2.42115 -6.03203,-13.3871 -6.58101,-11.74016 -0.75944,2.27831 5.75853,19.1995 7.39556,19.1995 0.32345,0 0.25155,-1.2375 -0.15976,-2.75 z M 363.4428,807.3298 c 3.58283,-1.12485 7.35062,-2.65676 8.37288,-3.40425 1.70948,-1.25001 1.73771,-1.5899 0.35172,-4.23514 -1.43076,-2.73072 -2.08135,-2.95925 -12.87288,-4.52184 -6.25127,-0.90517 -13.20221,-1.96572 -15.44653,-2.35677 l -4.08058,-0.71101 -1.62176,8.23187 c -0.89198,4.52753 -1.35342,8.66607 -1.02544,9.19676 0.97005,1.56958 19.15807,0.0497 26.32259,-2.19962 z m 133.93261,-0.86046 c -0.0292,-1.5125 -1.04569,-8.375 -2.25879,-15.25 l -2.20564,-12.5 -2.9912,0.13185 c -1.64517,0.0725 -4.90371,0.65236 -7.24121,1.28854 -4.96213,1.35051 -4.90139,0.96211 -2.43636,15.57961 l 1.68636,10 5,1.70623 c 2.75,0.93843 6.2375,1.72593 7.75,1.75 2.35643,0.0375 2.74239,-0.3498 2.69684,-2.70623 z m -31.72458,-17.75 c -0.81432,-3.82826 -1.01054,-3.99497 -4.57027,-3.88295 -2.04569,0.0644 -4.01463,0.41225 -4.37542,0.77305 -0.3608,0.36079 1.56688,2.91876 4.28372,5.68438 5.41399,5.51118 6.28015,5.03286 4.66197,-2.57448 z M 363.42857,781.703 c 0,-0.98331 -8.86551,-19.48366 -9.33672,-19.48366 -0.26028,0 -1.60085,1.9125 -2.97904,4.25 -1.3782,2.3375 -3.89596,5.57169 -5.59503,7.18709 -1.69906,1.6154 -3.08921,3.48724 -3.08921,4.15965 0,0.7444 2.83556,1.67592 7.25,2.38173 3.9875,0.63754 7.7,1.31767 8.25,1.5114 1.59954,0.56341 5.5,0.55901 5.5,-0.006 z m 24.73829,-0.30075 c 2.44135,-1.55056 4.41274,-19.82401 2.46862,-22.88237 -0.82028,-1.29039 -17.96329,-0.68717 -20.22676,0.71173 -0.83708,0.51734 0.0564,3.56888 3.10572,10.60701 2.35449,5.43439 4.70347,10.44322 5.21995,11.13072 1.03565,1.37856 7.478,1.67424 9.43247,0.43291 z m 24.98144,-2.73141 c 12.90437,-1.85361 14.75933,-2.41577 11.28027,-3.41858 -3.95277,-1.13936 -25.92676,-4.44284 -26.37086,-3.96449 -0.22036,0.23736 -0.71662,2.34407 -1.1028,4.68157 -0.69824,4.22644 -0.68519,4.25 2.35549,4.25 1.68169,0 7.90875,-0.69683 13.8379,-1.5485 z m 44.7949,-14.47518 c 0.78717,-1.27366 -3.18829,-13.46059 -4.83739,-14.82923 -1.29603,-1.0756 -10.42322,0.3568 -12.06195,1.89298 -0.92142,0.86377 1.41001,7.72266 3.98037,11.70993 1.21064,1.878 2.34621,2.25 6.86838,2.25 2.97986,0 5.70263,-0.46066 6.05059,-1.02368 z m 28.54953,-2.51597 c 0.41144,-0.25429 0.52321,-1.47439 0.24837,-2.71135 -1.00177,-4.5086 -4.4867,-14.73861 -5.16327,-15.15675 -0.65973,-0.40774 -13.27413,2.19929 -13.95995,2.88511 -0.52191,0.52191 5.1022,15.96304 6.05104,16.61324 0.85903,0.58866 11.40221,-0.75166 12.82381,-1.63025 z m -57.72264,-2.71035 c -0.90326,-2.3375 -1.97643,-4.62931 -2.38482,-5.09292 -0.70903,-0.80488 -26.83979,1.89268 -27.81895,2.87184 -0.2591,0.25909 -0.23045,0.71171 0.0637,1.00582 0.64779,0.6478 25.18205,5.15672 29.04049,5.33709 l 2.74191,0.12817 -1.64229,-4.25 z m -47.48821,-14.39246 c 7.14776,-0.74709 7.31598,-1.15732 4.05182,-9.88157 -4.87252,-13.02298 -17.22381,-17.58554 -25.8335,-9.54289 -3.83665,3.58398 -3.83391,5.21342 0.0226,13.45465 l 3.09425,6.61227 6.25906,0 c 3.44247,0 9.02506,-0.28911 12.40574,-0.64246 z m 25.32897,-2.48837 c 4.84974,-0.62195 8.81772,-1.49556 8.81772,-1.94136 0,-0.44579 -2.65153,-2.22378 -5.89229,-3.95109 -3.24076,-1.7273 -8.43639,-5.40807 -11.54583,-8.17947 -3.10945,-2.77141 -5.93718,-4.75528 -6.28385,-4.40861 -0.77703,0.77702 1.11872,13.09995 2.59393,16.86136 1.24129,3.16498 0.75523,3.10105 12.31032,1.61917 z m -81.55926,-20.05679 c -0.1043,-9.48481 -0.25444,-10.46977 -0.98644,-6.4713 -0.72918,3.98301 -0.0972,17.65892 0.81603,17.65892 0.16138,0 0.23807,-5.03443 0.17041,-11.18762 z m 81.38133,-15.60105 c -3.40345,-8.09123 -6.59675,-15.13883 -7.09622,-15.66133 -1.35549,-1.41799 -2.66806,0.34506 -4.8324,6.49092 -1.80002,5.11134 -1.81425,5.59502 -0.24368,8.28398 2.45448,4.20231 17.46814,18.27454 17.95114,16.82553 0.22509,-0.67527 -2.37539,-7.84787 -5.77884,-15.9391 z m -18.51712,-11.0551 c -0.52893,-0.53254 -2.48588,7.0971 -2.39661,9.34377 0.0437,1.1 0.67765,-0.475 1.40876,-3.5 0.73111,-3.025 1.17564,-5.6547 0.98785,-5.84377 z m 31.51277,-30.17201 c 0,-6.73307 -0.73447,-7.22688 -5.18237,-3.48422 -2.61417,2.19968 -3.89286,2.49618 -10.64436,2.4682 -5.15648,-0.0214 -8.30995,-0.51337 -9.6144,-1.5 -2.8029,-2.12001 -3.2302,-1.88097 -3.88843,2.1752 -0.32518,2.00386 -1.5875,4.70386 -2.80515,6 -1.21766,1.29613 -2.02298,2.39426 -1.7896,2.44028 0.23337,0.046 5.62525,0.15853 11.98196,0.25 9.04344,0.13014 12.08896,0.53529 14,1.86243 2.37269,1.64773 2.52078,1.61163 5.19235,-1.26578 2.36367,-2.54579 2.75,-3.80256 2.75,-8.94611 z m -37,-34.48422 c 0,-1.925 -0.45,-3.5 -1,-3.5 -1.11241,0 -1.32857,2.98018 -0.39301,5.41821 0.9527,2.48271 1.39301,1.87639 1.39301,-1.91821 z m 18,-12.26335 c 0,-1.96834 -8.16148,-12.51144 -15.91568,-20.56007 -11.58224,-12.02201 -23.19352,-20.56864 -37.58432,-27.66442 -17.25425,-8.50769 -35.91205,-13.4802 -54.38401,-14.49394 -9.60983,-0.52739 -8.76429,-0.24363 10.38401,3.48477 19.52956,3.80264 34.79065,9.98988 50.59988,20.51451 12.32669,8.20621 24.20701,19.36469 32.63825,30.6552 6.28967,8.42265 6.76764,8.8273 10.42686,8.8273 2.10925,0 3.83501,-0.34351 3.83501,-0.76335 z"
         id="path6323" />
      <path
         style="fill:#d85e08"
         d="m 267.42857,837.09758 c -14.89194,-1.9616 -34.71586,-9.98488 -46.50587,-18.82219 -2.75323,-2.06371 -6.48992,-4.51963 -8.30377,-5.45761 -4.11181,-2.1263 -13.84254,-3.46271 -12.78791,-1.75627 0.39357,0.6368 1.47653,1.17378 2.40657,1.19327 0.93004,0.0195 2.73393,0.61411 4.00865,1.32139 1.96674,1.09125 2.09973,1.46683 0.87836,2.48048 -4.20546,3.49022 -27.69603,8.99665 -27.69603,6.49224 0,-0.52545 1.35,-2.24875 3,-3.82955 1.65,-1.5808 3,-3.1889 3,-3.57355 0,-0.38465 -2.05744,-1.00789 -4.57208,-1.38499 -5.47351,-0.8208 -5.71342,-1.06922 -14.5267,-15.04146 -4.08367,-6.47409 -7.54798,-10.94285 -8.41985,-10.86111 -0.8331,0.0781 -1.48137,-0.68498 -1.48137,-1.74373 0,-1.03544 -1.97287,-6.27294 -4.38414,-11.63889 -7.89499,-17.56913 -13.40526,-35.39034 -16.77589,-54.25627 -2.05291,-11.49041 -1.76249,-43.34867 0.49225,-54 7.93607,-37.48969 27.67173,-66.39192 59.86542,-87.67099 19.58593,-12.94571 44.3103,-22.05639 64.30236,-23.69475 5.0586,-0.41455 5.47287,-0.33704 2.64034,0.49403 -1.84781,0.54215 -3.04781,1.29757 -2.66667,1.67872 0.38114,0.38114 7.06799,0.73904 14.85966,0.79532 8.40341,0.0607 18.23485,0.80406 24.16667,1.82726 11.60566,2.00189 30.47257,8.01553 39.63288,12.63259 17.68281,8.91263 35.65483,24.07414 47.55593,40.11899 5.95368,8.02665 6.80405,8.78347 9.66947,8.60582 1.72795,-0.10713 4.15422,0.15229 5.39172,0.5765 3.53552,1.21195 2.82097,-1.2368 -2.62286,-8.98853 -14.98684,-21.3405 -37.27932,-38.68758 -63.10236,-49.10367 -11.68308,-4.71253 -12.23258,-5.76842 -0.83199,-1.59871 9.34302,3.41716 21.4781,9.6571 30.90137,15.88969 10.7116,7.08468 28.1136,24.87032 36.38558,37.18773 3.78597,5.6375 7.46017,10.25 8.1649,10.25 0.70473,0 3.5807,-0.90633 6.39106,-2.01407 2.81036,-1.10774 5.49174,-1.77799 5.95862,-1.48944 1.29658,0.80133 15.6986,27.04303 16.991,30.95902 2.01924,6.11836 -2.06412,10.49261 -10.6639,11.42357 -5.67355,0.61418 -5.74432,0.66182 -6.51645,4.38752 -0.78719,3.79833 -3.69716,9.17454 -4.52033,8.35137 -0.24445,-0.24444 0.36352,-1.67756 1.35104,-3.18471 2.22638,-3.39787 2.34534,-12.88081 0.18865,-15.03751 -1.26674,-1.26673 -1.80484,-1.14519 -4.25647,0.96143 -1.96845,1.69143 -4.59373,2.61369 -8.79225,3.0887 -6.48595,0.7338 -8.2738,0.12279 -5.52404,-1.88788 0.96164,-0.70317 1.74843,-2.08612 1.74843,-3.07323 0,-1.67538 -0.12163,-1.68467 -1.82874,-0.13976 -1.00581,0.91025 -2.35581,1.65499 -3,1.65499 -0.64419,0 -1.17126,0.45857 -1.17126,1.01905 0,0.58374 -1.0528,0.75482 -2.46455,0.40049 -2.80746,-0.70463 -8.53545,1.47495 -8.53545,3.24785 0,2.57206 -5.19148,7.27791 -8.76949,7.94914 -3.56722,0.66922 -3.59386,0.70762 -1.18971,1.71517 1.35256,0.56685 9.58803,1.08232 18.30105,1.14551 15.57795,0.11296 15.87262,0.15567 17.68875,2.56336 1.56257,2.07154 1.6254,2.57244 0.40815,3.25365 -0.79131,0.44284 -1.44763,1.5703 -1.45847,2.50547 -0.0109,0.93517 4.15117,11.77584 9.24893,24.09037 6.41195,15.48916 9.96331,22.8452 11.52245,23.86679 3.2371,2.12103 28.86362,2.44252 40.74834,0.51119 10.01946,-1.62822 15.75206,-1.2549 18.46763,1.20267 4.96568,4.49387 15.44576,42.72191 18.49028,67.44668 2.69218,21.86342 1.97764,22.68461 -25.95791,29.83261 -48.29795,12.35822 -80.7987,6.36852 -101.64301,-18.73224 l -3.64301,-4.38692 -5.85699,2.59686 c -9.09604,4.03298 -12.88464,4.80262 -26.85699,5.45588 l -13,0.60779 -6.67834,6.26904 c -7.42882,6.9735 -16.08692,11.60736 -25.92211,13.87361 -8.68608,2.00147 -22.81335,2.64107 -31.89955,1.44422 z m 188.38717,-3.97381 c 4.88794,-0.59947 10.58935,-1.69051 12.66981,-2.42453 2.08046,-0.73403 4.63767,-1.11101 5.68269,-0.83773 3.94204,1.03087 4.59154,-1.74148 3.96405,-16.92034 -0.64298,-15.55344 -3.01927,-29.51904 -7.7797,-45.72183 -3.4174,-11.63159 -9.39626,-26.54499 -11.72647,-29.25 -1.77905,-2.0652 -4.7686,-2.28914 -5.89786,-0.4418 -1.41728,2.31852 -46.37424,8.70037 -74.9409,10.63822 -17.62773,1.1958 -32.28266,0.15094 -41.05096,-2.92681 -6.00062,-2.10626 -15.51566,-8.06368 -17.61307,-11.02762 -0.65712,-0.9286 -6.00417,-6.73755 -11.88235,-12.90876 -9.58679,-10.06472 -10.90001,-11.10671 -12.75,-10.11663 -1.13432,0.60707 -2.06241,1.91675 -2.06241,2.9104 0,2.98553 29.56204,31.15866 36.13142,34.43388 15.7123,7.83348 36.49499,8.47736 83.36858,2.58291 14.99285,-1.88538 36.03973,-5.29817 39.56696,-6.41585 2.75944,-0.87439 5.85257,3.89014 9.43878,14.53911 4.55162,13.51566 4.53394,14.57058 -0.25574,15.25715 -2.0625,0.29564 -11.66391,1.91202 -21.33646,3.59196 -30.91084,5.3686 -48.33651,7.35596 -65.41354,7.46028 -15.67337,0.0958 -16.89613,-0.059 -59.89737,-7.58229 -24.14355,-4.22402 -44.28105,-7.4429 -44.75,-7.15307 -1.275,0.78799 -1.02797,4.01907 0.39737,5.19746 0.6875,0.56838 12.725,2.87663 26.75,5.12944 14.025,2.25281 34.95,5.66563 46.5,7.58404 22.31552,3.70652 35.77173,4.38888 49.70915,2.52073 4.00997,-0.53749 14.94085,-1.92801 24.29085,-3.09004 9.35,-1.16203 23.75,-3.41879 32,-5.01501 8.25,-1.59623 15.51364,-2.90571 16.14142,-2.90997 2.06467,-0.014 4.52857,8.30147 5.92377,19.99227 1.78181,14.93032 1.79636,21.49559 0.0515,23.24043 -0.76081,0.76081 -6.75421,2.20705 -13.31867,3.21386 -32.61391,5.0021 -58.19961,-3.69344 -72.40121,-24.60622 -3.96237,-5.83485 -5.16445,-6.59792 -7.78218,-4.94009 -3.07435,1.94701 2.58821,11.87793 11.32646,19.8642 15.11363,13.81301 38.97416,19.56277 66.94606,16.13225 z m 36.51531,-7.57908 c 9.82887,-2.41405 12.28346,-3.88422 11.90843,-7.13253 -0.31235,-2.70528 -0.83061,-2.91712 -4.06091,-1.65992 -1.207,0.46975 -1.75,0.20005 -1.75,-0.86921 0,-0.85265 -1.00013,-2.2508 -2.22251,-3.10699 -1.66707,-1.16766 -1.82262,-1.5567 -0.62244,-1.5567 3.83018,0 4.01179,-2.2563 1.41494,-17.57989 -1.37797,-8.13126 -3.12097,-15.39966 -3.87332,-16.15201 -1.1572,-1.1572 -2.35591,-1.10387 -7.78229,0.34623 -9.48991,2.53601 -9.28302,2.06132 -6.94849,15.9427 2.17203,12.91523 2.59725,13.63259 9.26491,15.63027 4.8897,1.46499 4.90524,2.86589 0.0192,1.73125 -5.23547,-1.2158 -5.25,-1.21133 -5.25,1.61283 0,2.91896 2.36386,4.24146 4.46475,2.49788 1.92356,-1.59642 5.73838,-0.32252 5.33328,1.78097 -0.17364,0.90164 -2.33673,2.38286 -4.80687,3.29159 -3.9229,1.44319 -4.53208,2.06449 -4.8146,4.91038 -0.27186,2.7386 -0.0482,3.15253 1.40248,2.59584 0.94926,-0.36426 4.69481,-1.39148 8.32344,-2.28269 z m -31.40248,-1.49887 c 7.34753,-1.50673 9.68376,-3.2807 9.30877,-7.06842 -0.25458,-2.57146 -1.71279,-4.20053 -8.30877,-9.28232 -4.4,-3.38993 -10.62048,-9.38375 -13.82328,-13.31962 -5.0412,-6.19503 -6.24993,-7.15057 -9,-7.11483 -1.7472,0.0227 -13.49975,1.54173 -26.11678,3.3756 -20.33733,2.956 -23.1454,3.5879 -24.75,5.56949 -0.99547,1.22935 -1.80994,2.86328 -1.80994,3.63095 0,0.76767 3.0375,4.48021 6.75,8.25009 9.73383,9.88427 21.31792,15.12699 38.75,17.53742 4.4732,0.61854 23.27775,-0.40493 29,-1.57836 z m 46.17413,-18.07648 c -1.03545,-12.12096 -5.29517,-34.75 -6.54139,-34.75 -0.38584,0 -1.4841,1.32479 -2.44058,2.94398 -1.67387,2.83365 -1.6355,3.5815 1.02375,19.95399 2.35273,14.48527 3.06124,17.15522 4.77345,17.98834 3.57266,1.73837 3.81722,1.26716 3.18477,-6.13631 z m -148.53015,3.80705 c 7.29981,-1.54723 14.6596,-4.88162 15.4771,-7.01197 0.28799,-0.75051 -0.16308,-2.6925 -1.00238,-4.31554 -1.41249,-2.73146 -2.14314,-3.0356 -9.82235,-4.08869 -4.56299,-0.62575 -11.8238,-1.66285 -16.13513,-2.30466 -8.79679,-1.30955 -9.61802,-0.90191 -9.64591,4.78808 -0.008,1.71835 -0.70297,5.07332 -1.54345,7.45548 -0.84047,2.38217 -1.3046,4.91374 -1.03138,5.62573 0.68157,1.77615 15.04778,1.68619 23.7035,-0.14843 z m -128.33214,-1.81853 c 0.20572,-1.0682 -0.28392,-1.73852 -1.2699,-1.73852 -0.88259,0 -1.86373,-0.675 -2.18031,-1.5 -0.78205,-2.03797 -3.36163,-1.90655 -3.36163,0.17126 0,4.21143 6.06551,6.94263 6.81184,3.06726 z m 238.18816,-1.83831 c 0,-2.55986 -1.4731,-4.56298 -8.45713,-11.5 -8.43978,-8.38298 -9.76751,-9.17657 -12.48075,-7.45976 -1.19132,0.75381 -0.94295,1.62401 1.44842,5.07476 3.52667,5.08898 16.21139,16.98479 18.11119,16.98479 0.8746,0 1.37827,-1.13277 1.37827,-3.09979 z M 233.678,799.33952 c -2.20868,-2.972 -7.24943,-4.18578 -7.24943,-1.74562 0,0.82907 0.45734,1.79006 1.01631,2.13552 0.55897,0.34546 0.78893,0.99603 0.51101,1.44571 -0.78432,1.26907 2.03806,3.14822 3.74478,2.49329 0.83908,-0.32199 1.89806,0.008 2.35329,0.73275 0.62862,1.00113 0.91711,0.86605 1.19947,-0.56165 0.20449,-1.0339 -0.50446,-3.0589 -1.57543,-4.5 z m 63.75057,-0.62018 c 0,-0.825 0.9,-2.4 2,-3.5 2.72827,-2.72827 2.51001,-5.45367 -0.63486,-7.92742 -3.33462,-2.62301 -6.3852,-2.63419 -9.17658,-0.0336 -3.43373,3.19901 -2.81312,4.94152 1.81144,5.08604 2.2,0.0687 4.45,0.2375 5,0.375 0.55,0.1375 1.2801,0.30625 1.62244,0.375 0.34235,0.0687 0.0622,0.8 -0.62244,1.625 -1.49539,1.80183 -5.13749,1.96251 -6.8,0.3 -0.93333,-0.93333 -1.2,-0.63704 -1.2,1.33333 0,3.31401 0.66701,3.86667 4.66667,3.86667 2.29629,0 3.33333,-0.46667 3.33333,-1.5 z m 170.49358,-1.48962 c 0.91935,-1.48753 -1.31037,-12.25574 -2.85824,-13.80362 -1.85534,-1.85533 -8.37618,-0.55952 -9.70809,1.92918 -0.85575,1.59897 -0.14253,2.77921 4.46188,7.38362 5.50724,5.50725 6.97397,6.31999 8.10445,4.49082 z M 364.25468,782.92886 c 0.79363,-0.95626 -0.17943,-3.90002 -3.75723,-11.36661 -2.65552,-5.54188 -5.27421,-10.35177 -5.8193,-10.68866 -0.54509,-0.33688 -2.58727,1.96559 -4.53818,5.11662 -1.95091,3.15102 -4.93408,7.05082 -6.62926,8.66622 -1.69518,1.6154 -3.08214,3.48631 -3.08214,4.15757 0,0.76252 3.65847,1.84973 9.75,2.89745 5.3625,0.92234 10.2,1.8284 10.75,2.01349 1.81407,0.61045 2.24425,0.50749 3.32611,-0.79608 z m 25.8152,-2.28484 c 1.00145,-1.52841 1.73391,-5.80835 2.08527,-12.18479 0.72575,-13.17085 0.72613,-13.1705 -12.55868,-11.78913 -5.54991,0.57708 -10.51385,1.49924 -11.03097,2.04924 -1.10948,1.18003 7.81857,22.26307 10.14954,23.96752 2.58722,1.89182 9.60388,0.62946 11.35484,-2.04284 z m -15.64131,1.39261 c 0,-1.83148 -9.23853,-22.22725 -10.43046,-23.02718 -1.53841,-1.03245 -5.12228,1.71483 -4.76485,3.65259 0.16758,0.90851 2.27898,5.90557 4.69201,11.10457 4.13993,8.91974 4.55973,9.45273 7.4453,9.45273 1.68694,0 3.058,-0.53027 3.058,-1.18271 z m 39.20197,-1.85616 c 7.86392,-1.12138 15.08553,-2.2767 16.04803,-2.56739 1.70691,-0.5155 2.52563,-3.39374 0.96536,-3.39374 -0.43155,0 -7.7219,-1.13847 -16.20078,-2.52994 -8.47887,-1.39147 -15.96928,-2.31768 -16.64535,-2.05825 -1.39576,0.5356 -2.89354,8.77948 -2.01232,11.07591 0.73403,1.91284 0.73908,1.91269 17.84506,-0.52659 z m 73.7338,-4.50764 c 3.53967,-0.83432 7.02717,-2.00777 7.75,-2.60766 1.64362,-1.36409 1.71358,-6.04648 0.11423,-7.64583 -1.91955,-1.91955 -4.8,-1.45624 -4.8,0.77207 0,1.54901 -1.23349,2.31452 -5.75,3.56846 -3.1625,0.87802 -6.3125,1.77647 -7,1.99655 -0.6875,0.22008 -1.25,1.53927 -1.25,2.93154 0,3.05106 1.56995,3.19245 10.93577,0.98487 z M 266.0518,769.96934 c 6.55696,-8.87207 7.25514,-10.63455 4.89607,-12.35955 -3.19256,-2.33445 -4.24866,-1.65903 -9.07741,5.80546 -5.44511,8.41728 -5.84586,9.30898 -5.08026,11.30409 1.24795,3.25211 4.62925,1.51794 9.2616,-4.75 z m 178.82984,3.32593 c 0.31411,-0.50824 -1.03254,-4.67074 -2.99256,-9.25 -1.96002,-4.57926 -3.98081,-9.33843 -4.49065,-10.57593 -1.12313,-2.72611 -6.96986,-3.30862 -6.96986,-0.69441 0,1.66345 6.77414,18.10642 8.31965,20.19441 1.07618,1.45392 5.29765,1.67825 6.13342,0.32593 z m -10.46838,-1.32593 c -0.042,-3.42468 -2.32864,-4.32877 -18.69622,-7.39197 -9.23366,-1.72808 -17.12597,-2.93902 -17.53847,-2.69098 -0.66787,0.4016 -1.12277,5.28365 -0.5,5.36601 0.1375,0.0182 7.45,1.31917 16.25,2.89109 18.66962,3.33489 20.50518,3.4985 20.48469,1.82585 z m 25.22417,-1.37908 c 2.06034,-1.27336 -0.84123,-2.37092 -6.26788,-2.37092 -4.28415,0 -5.94098,0.37184 -5.94098,1.33333 0,0.73334 0.3375,1.67452 0.75,2.09151 0.74725,0.7554 9.89226,-0.0857 11.45886,-1.05392 z m -157.84372,-3.4435 c 3.44877,-2.71281 3.63553,-8.08106 0.38486,-11.06261 -2.63983,-2.42127 -24.54128,-15.86481 -25.84605,-15.86481 -0.49027,0 -2.26485,1.89599 -3.94352,4.21332 -4.60833,6.36162 -3.8913,8.46409 4.53957,13.31089 3.85,2.21332 8.94639,5.27786 11.3253,6.81008 7.98343,5.14202 9.84597,5.49873 13.53984,2.59313 z m -10.86514,-7.92742 c 0.33992,-0.55 1.06803,-1 1.61803,-1 0.55,0 0.72189,0.45 0.38197,1 -0.33992,0.55 -1.06803,1 -1.61803,1 -0.55,0 -0.72189,-0.45 -0.38197,-1 z m -5.48635,-3.25 c 0.0327,-2.99527 1.33564,-5.75 2.71961,-5.75 1.06755,0 1.32616,0.64868 0.89703,2.25 -0.33164,1.2375 -0.60913,2.8125 -0.61664,3.5 -0.008,0.6875 -0.68865,1.25 -1.51365,1.25 -0.825,0 -1.49386,-0.5625 -1.48635,-1.25 z m -4.01365,-2.75 c 0,-0.55 0.45,-1 1,-1 0.55,0 1,0.45 1,1 0,0.55 -0.45,1 -1,1 -0.55,0 -1,-0.45 -1,-1 z m 175.68083,13.3878 c 1.19945,-0.32168 2.42252,-1.21474 2.71793,-1.98457 0.74036,-1.92934 -4.54788,-15.46393 -6.53077,-16.7147 -2.10933,-1.33053 -13.84445,1.08655 -14.57986,3.003 -0.66021,1.72047 4.37881,13.36527 6.51621,15.05847 1.64314,1.30167 8.10689,1.64879 11.87649,0.6378 z m -26.05463,-2.85609 c 0.77112,-2.00949 -2.56276,-10.43482 -4.53007,-11.44832 -2.15753,-1.1115 -27.6739,2.08716 -29.24932,3.66661 -2.34432,2.35031 0.91068,3.69406 15.43365,6.37142 17.41204,3.20997 17.64818,3.22812 18.34574,1.41029 z m 56.02146,-0.65426 c 1.8195,-1.51005 1.7077,-3.51626 -0.61502,-11.03635 -3.1418,-10.17197 -3.34837,-10.32373 -11.95808,-8.78509 -4.38978,0.7845 -7.49013,1.86338 -7.81923,2.721 -0.71389,1.86036 3.76668,16.10214 5.66218,17.99764 1.12122,1.12122 2.88178,1.3222 7.42379,0.84747 3.27471,-0.34228 6.56257,-1.12738 7.30636,-1.74467 z m 10.36868,-6.03166 c -5.02245,-17.35853 -10.01634,-28.27856 -10.01634,-21.90249 0,1.2035 -0.49547,3.11397 -1.10104,4.24549 -0.86949,1.62467 -0.50527,4.04039 1.73197,11.48729 2.66288,8.86372 3.07428,9.56657 6.85103,11.70455 2.20992,1.25101 4.16243,2.17025 4.33891,2.04276 0.17648,-0.12749 -0.63555,-3.53741 -1.80453,-7.5776 z m -164.48937,2.31383 c -0.36938,-2.18634 -1.29975,-4.80416 -2.06748,-5.81739 -1.34604,-1.77644 -1.39702,-1.772 -1.42769,0.12434 -0.0378,2.33703 3.05719,10.77778 3.71185,10.12311 0.25021,-0.2502 0.1527,-2.24373 -0.21668,-4.43006 z m -27.13964,-5.59263 c -0.86195,-2.24621 -16.49884,-12.17785 -20.35608,-12.929 -4.74608,-0.92423 -3.43614,0.20751 9.10875,7.8697 11.18521,6.83173 12.08233,7.23527 11.24733,5.0593 z m 0.11267,-4.56699 c -0.33992,-0.55 -1.15398,-0.99311 -1.80902,-0.98469 -0.71561,0.009 -0.59227,0.40223 0.30902,0.98469 1.92112,1.24153 2.2673,1.24153 1.5,0 z m 81.75,-4.14897 c 2.21425,-1.16583 2.19696,-1.55942 -0.37627,-8.56352 -3.9777,-10.82694 -9.89826,-16.27702 -17.68947,-16.28377 -4.85845,-0.004 -7.44123,1.08127 -11.43426,4.80554 -3.46408,3.23092 -3.51322,6.39311 -0.21619,13.91221 3.67206,8.37437 4.04591,8.54488 16.96619,7.73795 6.05,-0.37786 11.7875,-1.10164 12.75,-1.60841 z m -88.75,-0.45611 c -2.56146,-1.97421 -5.5,-3.59217 -5.5,-3.02831 0,0.5083 6.25783,4.60694 7,4.58474 0.275,-0.008 -0.4,-0.70862 -1.5,-1.55643 z m 58.94734,0.69029 c 0.31095,-0.50314 -4.898,-12.54064 -11.57544,-26.75 -6.67745,-14.20937 -14.0815,-30.10227 -16.45344,-35.31757 -2.37195,-5.2153 -4.80157,-9.64534 -5.39917,-9.84454 -1.57714,-0.52572 -4.01929,1.78685 -4.01929,3.80601 0,3.23303 30.7731,67.41094 32.68471,68.16462 2.57835,1.01655 4.10983,0.99773 4.76263,-0.0585 z m 52.44975,-2.10422 c 11.45746,-1.61826 11.48759,-1.94259 0.72905,-7.84722 -4.05036,-2.22297 -9.84881,-6.31247 -12.88543,-9.08777 -7.53641,-6.88785 -8.17384,-6.69813 -7.42093,2.20871 1.08742,12.86427 3.34545,16.9167 9.01627,16.18134 1.74017,-0.22566 6.49264,-0.88044 10.56104,-1.45506 z m 73.23044,-4.55981 c 1.28461,-0.79393 1.06141,-3.01949 -0.42668,-4.25449 -0.94011,-0.78022 -3.77292,-0.57059 -10.25,0.75849 -8.34096,1.71155 -8.93213,1.99514 -8.67609,4.16204 0.15112,1.27895 0.74729,2.61739 1.32484,2.97433 0.97924,0.60521 16.09825,-2.44776 18.02793,-3.64037 z m -203.14759,0.0547 c -0.69572,-0.83829 -1.52528,-1.26382 -1.84348,-0.94562 -0.3182,0.31819 0.0834,0.99718 0.8925,1.50885 2.11697,1.33881 2.39358,1.17499 0.95098,-0.56323 z m 150.02006,-0.98945 c 0,-0.83246 -0.45871,-2.29496 -1.01935,-3.25 -0.56064,-0.95504 -5.69371,-12.76143 -11.40682,-26.23643 -8.03527,-18.95207 -10.82467,-24.56754 -12.31816,-24.79826 -5.08775,-0.78597 -4.51123,1.76467 5.84879,25.87621 5.53507,12.88213 10.67795,24.88455 11.42862,26.67205 1.11637,2.65829 1.92035,3.25 4.41589,3.25 2.05752,0 3.05103,-0.49287 3.05103,-1.51357 z m 15.85898,-1.46783 c 0.7509,-0.39788 -1.61758,-1.02504 -5.29326,-1.40162 -7.35743,-0.75379 -9.32081,-0.23174 -7.47823,1.98844 0.88639,1.06803 2.47203,1.26448 6.29856,0.78032 2.81267,-0.35588 5.72549,-0.97109 6.47293,-1.36714 z m -154.58806,-5.82149 3.97832,-6.3029 -2.26998,-2.41628 c -1.24849,-1.32896 -2.64774,-2.18282 -3.10946,-1.89746 -0.46171,0.28535 -2.69917,3.64916 -4.97214,7.47513 -3.46321,5.82944 -3.92532,7.20615 -2.85267,8.49861 2.31479,2.78915 5.10772,1.16741 9.22593,-5.3571 z m 126.57831,2.80023 c -0.69302,-1.988 -3.56145,-4.73135 -8.7445,-8.36321 -4.24225,-2.97262 -9.85938,-7.79187 -12.48252,-10.70943 -3.78796,-4.21312 -4.96203,-5.00835 -5.70573,-3.86468 -1.79809,2.76512 0.18506,6.48836 6.94552,13.03976 6.47243,6.27227 18.69085,14.29461 20.2777,13.31388 0.40747,-0.25183 0.27676,-1.78917 -0.29047,-3.41632 z m -91.32173,-9.74734 c -0.0151,-7.0125 0.37709,-14.72236 0.87158,-17.13303 1.26747,-6.17893 -1.30103,-5.1617 -3.65885,1.44905 -1.34698,3.7766 -1.69424,7.397 -1.48043,15.43398 0.28184,10.59401 0.85127,13 3.07671,13 0.8957,0 1.2112,-3.37753 1.19099,-12.75 z m 87.68919,-0.30939 c -0.91202,-4.63757 -14.60916,-34.94061 -15.79335,-34.94061 -1.48119,0 -4.38974,5.14114 -6.36696,11.25423 -1.07889,3.33566 -0.97787,4.13674 0.90613,7.18512 3.12128,5.05033 18.00498,18.72203 19.92107,18.29886 0.88903,-0.19634 1.48893,-1.00526 1.33311,-1.7976 z m -27.21669,-10.89429 c 0,-7.76414 2.91232,-20.25606 5.02713,-21.56309 0.53508,-0.33069 0.97287,-1.26554 0.97287,-2.07743 0,-3.12278 -4.2002,0.78982 -6.69292,6.23462 -2.89056,6.31382 -4.19227,19.105 -2.40879,23.66975 1.81496,4.64529 3.10171,2.04671 3.10171,-6.26385 z m -76.24722,-13.12104 c 4.01744,-6.28391 7.56781,-11.99586 7.88971,-12.69324 0.67891,-1.47083 -1.48549,-7.23204 -2.71697,-7.23204 -0.83515,0 -11.56614,15.87046 -16.00527,23.6708 -2.33958,4.11105 -2.34631,4.20093 -0.46991,6.27433 1.04702,1.15694 2.3749,1.94646 2.95083,1.75448 0.57594,-0.19198 4.33416,-5.49043 8.35161,-11.77433 z m 26.51997,-26.89491 c 9.25024,-4.19426 27.09043,-9.43305 44.33726,-13.01969 8.115,-1.68759 15.32078,-3.53827 16.01283,-4.11263 2.11904,-1.75864 0.40679,-3.89805 -3.11975,-3.89805 -10.97497,0 -57.47858,12.52332 -65.22849,17.56589 -1.9296,1.25552 -2.07442,1.77936 -1.08949,3.94105 0.62476,1.37118 1.45145,2.49306 1.83709,2.49306 0.38564,0 3.64839,-1.33633 7.25055,-2.96963 z m 72.22725,-12.03037 c 0.35052,-0.56716 -0.48962,-1 -1.94098,-1 -1.40746,0 -2.55902,0.45 -2.55902,1 0,0.55 0.87344,1 1.94098,1 1.06754,0 2.2191,-0.45 2.55902,-1 z m 25.92857,-0.57143 c 2.79893,-2.79892 1.68736,-6.67487 -6.08806,-21.22851 -6.43064,-12.03656 -7.97069,-14.25246 -9.72998,-14 -3.30878,0.47482 -2.99771,2.82461 1.71937,12.98784 3.94266,8.4947 4.74521,9.57712 7.51097,10.13027 4.28862,0.85773 7.43882,4.18603 6.60931,6.98298 -0.89551,3.01947 -3.29022,4.69885 -6.70033,4.69885 -1.65728,0 -2.607,0.42212 -2.24985,1 0.96911,1.56805 7.18704,1.1701 8.92857,-0.57143 z m -3.7644,-4.99579 c 0.33077,-0.86197 0.20414,-1.96175 -0.28139,-2.44396 -1.06797,-1.06068 -14.4162,-3.28874 -15.17238,-2.53255 -0.29441,0.2944 -0.0348,1.63367 0.57685,2.97614 0.8327,1.82758 2.06699,2.54017 4.91244,2.83612 8.0618,0.83849 9.36392,0.72928 9.96448,-0.83575 z m -18.66417,-1.89527 c 0,-1.93542 -3.98427,-12.53751 -4.71161,-12.53751 -0.31235,0 -1.11494,0.74812 -1.78354,1.66248 -1.82236,2.49223 -4.71145,1.00887 -3.94932,-2.02772 0.44781,-1.78419 0.0325,-2.8099 -1.6009,-3.95399 -1.73518,-1.21536 -2.0598,-2.1256 -1.52211,-4.26794 0.63819,-2.54273 -0.46564,-4.35225 -2.68252,-4.39752 -1.60218,-0.0327 -0.60938,5.68849 1.68274,9.69715 1.32476,2.31685 2.7345,5.24185 3.13275,6.5 0.39825,1.25815 1.54294,4.20004 2.54376,6.53754 1.65076,3.85549 2.14786,4.25 5.35521,4.25 2.43573,0 3.53554,-0.45494 3.53554,-1.46249 z m -23.53954,-5.08345 c 1.9222,-1.4534 1.92476,-1.57476 0.1311,-6.2182 -1.00615,-2.60472 -2.07312,-5.86086 -2.37103,-7.23586 -0.7786,-3.59354 -4.29579,-8 -6.38554,-8 -0.98388,0 -2.5162,1.11003 -3.40514,2.46672 -1.51967,2.3193 -1.45326,2.96177 1.11118,10.75 1.50009,4.5558 2.91859,8.62078 3.15222,9.03328 0.72241,1.2755 5.70258,0.76516 7.76721,-0.79594 z m 10.53954,-0.24179 c 0,-0.43325 -1.6158,-4.59575 -3.59067,-9.25 -1.97486,-4.65425 -3.82735,-9.24977 -4.11663,-10.21227 -0.61568,-2.04851 -2.85682,-2.32826 -3.57884,-0.44673 -0.27506,0.71681 0.70858,5.10063 2.18586,9.74183 2.05519,6.45683 3.26301,8.73056 5.14313,9.68199 2.86237,1.44849 3.95715,1.58272 3.95715,0.48518 z M 413.509,636.97174 c -2.5575,-8.01284 -3.59703,-9.7524 -5.82787,-9.7524 -2.05074,0 -1.19494,3.89236 2.74913,12.50369 2.33084,5.08906 3.39402,6.5006 4.25087,5.64375 0.85686,-0.85686 0.5637,-2.95654 -1.17213,-8.39504 z m 8.91957,8.87203 c 0,-0.20656 -1.11272,-2.89164 -2.47272,-5.96683 -1.36,-3.07519 -3.15057,-7.21357 -3.97904,-9.1964 -0.82848,-1.98283 -1.93747,-3.33868 -2.46443,-3.013 -0.81817,0.50566 3.47706,14.41423 5.42447,17.56519 0.57062,0.92328 3.49172,1.43446 3.49172,0.61104 z m -16.87793,-13.29943 c -0.87155,-1.49877 -1.06669,-1.54197 -1.09166,-0.24167 -0.0323,1.68408 1.01919,3.2004 1.72792,2.49167 0.23375,-0.23375 -0.0526,-1.24625 -0.63626,-2.25 z m -8.76044,-7.825 c 0.31658,-0.825 0.13972,-1.5 -0.39301,-1.5 -0.53274,0 -0.96862,0.675 -0.96862,1.5 0,0.825 0.17686,1.5 0.39301,1.5 0.21616,0 0.65203,-0.675 0.96862,-1.5 z m -190.36163,196 c 1.375,-0.78602 2.95,-1.42913 3.5,-1.42913 0.55,0 -0.125,0.64311 -1.5,1.42913 -1.375,0.78602 -2.95,1.42913 -3.5,1.42913 -0.55,0 0.125,-0.64311 1.5,-1.42913 z m 112.5,-262.5 c -2,-0.85943 -2,-0.85943 0,-0.85943 1.1,0 2.9,0.38674 4,0.85943 2,0.85943 2,0.85943 0,0.85943 -1.1,0 -2.9,-0.38674 -4,-0.85943 z m -9,-2 c -2.69472,-0.68569 -2.7456,-0.76527 -0.5,-0.78201 1.375,-0.0102 3.625,0.34166 5,0.78201 1.95899,0.62738 2.0672,0.79661 0.5,0.782 -1.1,-0.0102 -3.35,-0.36215 -5,-0.782 z m -9.22917,-1.60417 c 0.33229,-0.33229 1.19479,-0.36781 1.91667,-0.0789 0.79773,0.31923 0.56078,0.55619 -0.60417,0.60417 -1.05416,0.0434 -1.64479,-0.19293 -1.3125,-0.52522 z"
         id="path6321" />
      <path
         style="fill:#000000;fill-opacity:1"
         d="m 267.42857,837.09758 c -14.89194,-1.9616 -34.71586,-9.98488 -46.50587,-18.82219 -2.75323,-2.06371 -6.48992,-4.51963 -8.30377,-5.45761 -4.11181,-2.1263 -13.84254,-3.46271 -12.78791,-1.75627 0.39357,0.6368 1.47653,1.17378 2.40657,1.19327 0.93004,0.0195 2.73393,0.61411 4.00865,1.32139 1.96674,1.09125 2.09973,1.46683 0.87836,2.48048 -4.20546,3.49022 -27.69603,8.99665 -27.69603,6.49224 0,-0.52545 1.35,-2.24875 3,-3.82955 1.65,-1.5808 3,-3.1889 3,-3.57355 0,-0.38465 -2.05744,-1.00789 -4.57208,-1.38499 -5.47351,-0.8208 -5.71342,-1.06922 -14.5267,-15.04146 -4.08367,-6.47409 -7.54798,-10.94285 -8.41985,-10.86111 -0.8331,0.0781 -1.48137,-0.68498 -1.48137,-1.74373 0,-1.03544 -1.97287,-6.27294 -4.38414,-11.63889 -7.89499,-17.56913 -13.40526,-35.39034 -16.77589,-54.25627 -2.05291,-11.49041 -1.76249,-43.34867 0.49225,-54 7.93607,-37.48969 27.67173,-66.39192 59.86542,-87.67099 19.58593,-12.94571 44.3103,-22.05639 64.30236,-23.69475 5.01771,-0.4112 5.45462,-0.33153 2.66876,0.48666 -2.693,0.79092 -3.10964,1.24539 -2.1746,2.37205 0.96268,1.15996 0.33599,1.38732 -3.73694,1.35577 -24.11904,-0.18682 -58.87464,16.65445 -81.75722,39.61652 -24.06631,24.14992 -36.56754,52.63153 -39.14028,89.17352 -2.32257,32.98874 11.63412,79.43939 33.98571,113.11122 6.58279,9.91672 6.92352,10.24961 10.4793,10.23813 2.0214,-0.007 6.15027,-0.67619 9.17527,-1.48813 6.96571,-1.86967 15.59559,-1.90679 20.74711,-0.0892 2.19922,0.77592 8.11632,4.18392 13.14912,7.57332 17.3275,11.6694 33.03419,16.85897 53.60377,17.71094 26.44886,1.09549 45.66348,-8.00529 54.31953,-25.72782 4.00661,-8.20321 4.95599,-18.46722 1.70815,-18.46722 -1.5419,0 -2.13169,0.9335 -2.70255,4.27748 -1.74425,10.21744 -12.49792,22.84389 -24.03753,28.22373 -11.00704,5.13155 -17.49376,6.26167 -33.22687,5.7888 -12.5221,-0.37636 -15.06872,-0.76749 -23.27223,-3.57434 -10.37134,-3.54861 -21.54655,-8.91708 -25.2885,-12.14839 l -2.5,-2.15884 4.2713,2.07696 c 8.15307,3.96451 20.76887,8.70357 28.2287,10.60396 10.51377,2.67838 32.18347,2.69918 40,0.0384 8.61938,-2.93408 16.49819,-7.45792 21.39252,-12.2831 4.98585,-4.91544 10.60748,-15.18481 10.60748,-19.37735 0,-2.62782 -0.283,-2.76499 -8.99162,-4.35826 -18.00599,-3.29423 -20.05133,-3.25004 -16.75838,0.36209 0.6875,0.75414 -0.0482,0.39414 -1.63486,-0.8 -1.58667,-1.19414 -3.91167,-2.17116 -5.16667,-2.17116 -1.25499,0 -2.43596,-0.46246 -2.62437,-1.02769 -0.39674,-1.19022 -23.08195,-4.94015 -30.00152,-4.95934 -3.85354,-0.0107 -5.04248,-0.47707 -6.75,-2.64783 -1.13992,-1.44917 -2.07258,-2.97492 -2.07258,-3.39056 0,-0.41563 2.75928,-4.95786 6.13174,-10.09382 3.37246,-5.13597 6.58364,-10.69772 7.13596,-12.35944 1.59533,-4.79975 10.80109,-19.40714 12.59875,-19.99128 1.92911,-0.62685 8.89355,-11.14638 10.52905,-15.90374 0.62825,-1.82745 2.41029,-4.85346 3.9601,-6.72447 1.5498,-1.87101 6.78798,-9.51515 11.6404,-16.98699 10.31925,-15.88978 15.02879,-20.42392 27.504,-26.47966 8.28212,-4.02032 31.37217,-11.06239 42.31963,-12.90675 2.37579,-0.40027 4.56756,-1.37385 4.87058,-2.16352 0.30303,-0.78968 -0.8533,-5.29059 -2.56963,-10.00203 -3.77058,-10.35057 -3.83064,-11.75871 -0.62058,-14.54983 1.375,-1.19555 2.5,-2.59792 2.5,-3.11639 0,-2.21465 -10.15008,-14.91261 -18.96701,-23.72813 -22.69769,-22.69407 -52.82547,-36.73773 -82.87687,-38.63195 -7.50606,-0.47313 -9.86589,-0.9195 -8.60161,-1.62703 2.15428,-1.20559 18.41807,-0.22409 31.44549,1.89769 10.99723,1.79113 29.93265,7.81776 39.13288,12.45493 17.68281,8.91264 35.65483,24.07415 47.55593,40.119 5.95368,8.02665 6.80405,8.78347 9.66947,8.60582 1.72795,-0.10713 4.15422,0.15229 5.39172,0.5765 3.53552,1.21195 2.82097,-1.2368 -2.62286,-8.98853 -14.98684,-21.3405 -37.27932,-38.68758 -63.10236,-49.10367 -11.68308,-4.71253 -12.23258,-5.76842 -0.83199,-1.59871 9.34302,3.41716 21.4781,9.6571 30.90137,15.88969 10.7116,7.08468 28.1136,24.87032 36.38558,37.18773 3.78597,5.6375 7.46017,10.25 8.1649,10.25 0.70473,0 3.5807,-0.90633 6.39106,-2.01407 2.81036,-1.10774 5.49174,-1.77799 5.95862,-1.48944 1.29658,0.80133 15.6986,27.04303 16.991,30.95902 2.01924,6.11836 -2.06412,10.49261 -10.6639,11.42357 -5.67355,0.61418 -5.74432,0.66182 -6.51645,4.38752 -0.78719,3.79833 -3.69716,9.17454 -4.52033,8.35137 -0.24445,-0.24444 0.36352,-1.67756 1.35104,-3.18471 2.22638,-3.39787 2.34534,-12.88081 0.18865,-15.03751 -1.26674,-1.26673 -1.80484,-1.14519 -4.25647,0.96143 -1.96845,1.69143 -4.59373,2.61369 -8.79225,3.0887 -6.48595,0.7338 -8.2738,0.12279 -5.52404,-1.88788 0.96164,-0.70317 1.74843,-2.08612 1.74843,-3.07323 0,-1.67538 -0.12163,-1.68467 -1.82874,-0.13976 -1.00581,0.91025 -2.35581,1.65499 -3,1.65499 -0.64419,0 -1.17126,0.45857 -1.17126,1.01905 0,0.58374 -1.0528,0.75482 -2.46455,0.40049 -2.80746,-0.70463 -8.53545,1.47495 -8.53545,3.24785 0,2.57206 -5.19148,7.27791 -8.76949,7.94914 -3.56722,0.66922 -3.59386,0.70762 -1.18971,1.71517 1.35256,0.56685 9.58803,1.08232 18.30105,1.14551 15.57795,0.11296 15.87262,0.15567 17.68875,2.56336 1.56257,2.07154 1.6254,2.57244 0.40815,3.25365 -0.79131,0.44284 -1.44763,1.5703 -1.45847,2.50547 -0.0109,0.93517 4.15117,11.77584 9.24893,24.09037 6.41195,15.48916 9.96331,22.8452 11.52245,23.86679 3.2371,2.12103 28.86362,2.44252 40.74834,0.51119 10.01946,-1.62822 15.75206,-1.2549 18.46763,1.20267 4.96568,4.49387 15.44576,42.72191 18.49028,67.44668 2.69218,21.86342 1.97764,22.68461 -25.95791,29.83261 -48.29795,12.35822 -80.7987,6.36852 -101.64301,-18.73224 l -3.64301,-4.38692 -5.85699,2.59686 c -9.09604,4.03298 -12.88464,4.80262 -26.85699,5.45588 l -13,0.60779 -6.67834,6.26904 c -7.42882,6.9735 -16.08692,11.60736 -25.92211,13.87361 -8.68608,2.00147 -22.81335,2.64107 -31.89955,1.44422 z m 188.38717,-3.97381 c 4.88794,-0.59947 10.58935,-1.69051 12.66981,-2.42453 2.08046,-0.73403 4.63767,-1.11101 5.68269,-0.83773 3.94204,1.03087 4.59154,-1.74148 3.96405,-16.92034 -0.64298,-15.55344 -3.01927,-29.51904 -7.7797,-45.72183 -3.4174,-11.63159 -9.39626,-26.54499 -11.72647,-29.25 -1.77905,-2.0652 -4.7686,-2.28914 -5.89786,-0.4418 -1.41728,2.31852 -46.37424,8.70037 -74.9409,10.63822 -17.62773,1.1958 -32.28266,0.15094 -41.05096,-2.92681 -6.00062,-2.10626 -15.51566,-8.06368 -17.61307,-11.02762 -0.65712,-0.9286 -6.00417,-6.73755 -11.88235,-12.90876 -9.58679,-10.06472 -10.90001,-11.10671 -12.75,-10.11663 -1.13432,0.60707 -2.06241,1.91675 -2.06241,2.9104 0,2.98553 29.56204,31.15866 36.13142,34.43388 15.7123,7.83348 36.49499,8.47736 83.36858,2.58291 14.99285,-1.88538 36.03973,-5.29817 39.56696,-6.41585 2.75944,-0.87439 5.85257,3.89014 9.43878,14.53911 4.55162,13.51566 4.53394,14.57058 -0.25574,15.25715 -2.0625,0.29564 -11.66391,1.91202 -21.33646,3.59196 -30.91084,5.3686 -48.33651,7.35596 -65.41354,7.46028 -15.67337,0.0958 -16.89613,-0.059 -59.89737,-7.58229 -24.14355,-4.22402 -44.28105,-7.4429 -44.75,-7.15307 -1.275,0.78799 -1.02797,4.01907 0.39737,5.19746 0.6875,0.56838 12.725,2.87663 26.75,5.12944 14.025,2.25281 34.95,5.66563 46.5,7.58404 22.31552,3.70652 35.77173,4.38888 49.70915,2.52073 4.00997,-0.53749 14.94085,-1.92801 24.29085,-3.09004 9.35,-1.16203 23.75,-3.41879 32,-5.01501 8.25,-1.59623 15.51364,-2.90571 16.14142,-2.90997 2.06467,-0.014 4.52857,8.30147 5.92377,19.99227 1.78181,14.93032 1.79636,21.49559 0.0515,23.24043 -0.76081,0.76081 -6.75421,2.20705 -13.31867,3.21386 -32.61391,5.0021 -58.19961,-3.69344 -72.40121,-24.60622 -3.96237,-5.83485 -5.16445,-6.59792 -7.78218,-4.94009 -3.07435,1.94701 2.58821,11.87793 11.32646,19.8642 15.11363,13.81301 38.97416,19.56277 66.94606,16.13225 z m 36.51531,-7.57908 c 9.82887,-2.41405 12.28346,-3.88422 11.90843,-7.13253 -0.31235,-2.70528 -0.83061,-2.91712 -4.06091,-1.65992 -1.207,0.46975 -1.75,0.20005 -1.75,-0.86921 0,-0.85265 -1.00013,-2.2508 -2.22251,-3.10699 -1.66707,-1.16766 -1.82262,-1.5567 -0.62244,-1.5567 3.83018,0 4.01179,-2.2563 1.41494,-17.57989 -1.37797,-8.13126 -3.12097,-15.39966 -3.87332,-16.15201 -1.1572,-1.1572 -2.35591,-1.10387 -7.78229,0.34623 -9.48991,2.53601 -9.28302,2.06132 -6.94849,15.9427 2.17203,12.91523 2.59725,13.63259 9.26491,15.63027 4.8897,1.46499 4.90524,2.86589 0.0192,1.73125 -5.23547,-1.2158 -5.25,-1.21133 -5.25,1.61283 0,2.91896 2.36386,4.24146 4.46475,2.49788 1.92356,-1.59642 5.73838,-0.32252 5.33328,1.78097 -0.17364,0.90164 -2.33673,2.38286 -4.80687,3.29159 -3.9229,1.44319 -4.53208,2.06449 -4.8146,4.91038 -0.27186,2.7386 -0.0482,3.15253 1.40248,2.59584 0.94926,-0.36426 4.69481,-1.39148 8.32344,-2.28269 z m -31.40248,-1.49887 c 7.34753,-1.50673 9.68376,-3.2807 9.30877,-7.06842 -0.25458,-2.57146 -1.71279,-4.20053 -8.30877,-9.28232 -4.4,-3.38993 -10.62048,-9.38375 -13.82328,-13.31962 -5.0412,-6.19503 -6.24993,-7.15057 -9,-7.11483 -1.7472,0.0227 -13.49975,1.54173 -26.11678,3.3756 -20.33733,2.956 -23.1454,3.5879 -24.75,5.56949 -0.99547,1.22935 -1.80994,2.86328 -1.80994,3.63095 0,0.76767 3.0375,4.48021 6.75,8.25009 9.73383,9.88427 21.31792,15.12699 38.75,17.53742 4.4732,0.61854 23.27775,-0.40493 29,-1.57836 z m 46.17413,-18.07648 c -1.03545,-12.12096 -5.29517,-34.75 -6.54139,-34.75 -0.38584,0 -1.4841,1.32479 -2.44058,2.94398 -1.67387,2.83365 -1.6355,3.5815 1.02375,19.95399 2.35273,14.48527 3.06124,17.15522 4.77345,17.98834 3.57266,1.73837 3.81722,1.26716 3.18477,-6.13631 z m -148.53015,3.80705 c 7.29981,-1.54723 14.6596,-4.88162 15.4771,-7.01197 0.28799,-0.75051 -0.16308,-2.6925 -1.00238,-4.31554 -1.41249,-2.73146 -2.14314,-3.0356 -9.82235,-4.08869 -4.56299,-0.62575 -11.8238,-1.66285 -16.13513,-2.30466 -8.79679,-1.30955 -9.61802,-0.90191 -9.64591,4.78808 -0.008,1.71835 -0.70297,5.07332 -1.54345,7.45548 -0.84047,2.38217 -1.3046,4.91374 -1.03138,5.62573 0.68157,1.77615 15.04778,1.68619 23.7035,-0.14843 z m 109.85602,-3.65684 c 0,-2.55986 -1.4731,-4.56298 -8.45713,-11.5 -8.43978,-8.38298 -9.76751,-9.17657 -12.48075,-7.45976 -1.19132,0.75381 -0.94295,1.62401 1.44842,5.07476 3.52667,5.08898 16.21139,16.98479 18.11119,16.98479 0.8746,0 1.37827,-1.13277 1.37827,-3.09979 z m -0.50642,-8.88983 c 0.91935,-1.48753 -1.31037,-12.25574 -2.85824,-13.80362 -1.85534,-1.85533 -8.37618,-0.55952 -9.70809,1.92918 -0.85575,1.59897 -0.14253,2.77921 4.46188,7.38362 5.50724,5.50725 6.97397,6.31999 8.10445,4.49082 z M 364.25468,782.92886 c 0.79363,-0.95626 -0.17943,-3.90002 -3.75723,-11.36661 -2.65552,-5.54188 -5.27421,-10.35177 -5.8193,-10.68866 -0.54509,-0.33688 -2.58727,1.96559 -4.53818,5.11662 -1.95091,3.15102 -4.93408,7.05082 -6.62926,8.66622 -1.69518,1.6154 -3.08214,3.48631 -3.08214,4.15757 0,0.76252 3.65847,1.84973 9.75,2.89745 5.3625,0.92234 10.2,1.8284 10.75,2.01349 1.81407,0.61045 2.24425,0.50749 3.32611,-0.79608 z m 25.8152,-2.28484 c 1.00145,-1.52841 1.73391,-5.80835 2.08527,-12.18479 0.72575,-13.17085 0.72613,-13.1705 -12.55868,-11.78913 -5.54991,0.57708 -10.51385,1.49924 -11.03097,2.04924 -1.10948,1.18003 7.81857,22.26307 10.14954,23.96752 2.58722,1.89182 9.60388,0.62946 11.35484,-2.04284 z m -15.64131,1.39261 c 0,-1.83148 -9.23853,-22.22725 -10.43046,-23.02718 -1.53841,-1.03245 -5.12228,1.71483 -4.76485,3.65259 0.16758,0.90851 2.27898,5.90557 4.69201,11.10457 4.13993,8.91974 4.55973,9.45273 7.4453,9.45273 1.68694,0 3.058,-0.53027 3.058,-1.18271 z m 39.20197,-1.85616 c 7.86392,-1.12138 15.08553,-2.2767 16.04803,-2.56739 1.70691,-0.5155 2.52563,-3.39374 0.96536,-3.39374 -0.43155,0 -7.7219,-1.13847 -16.20078,-2.52994 -8.47887,-1.39147 -15.96928,-2.31768 -16.64535,-2.05825 -1.39576,0.5356 -2.89354,8.77948 -2.01232,11.07591 0.73403,1.91284 0.73908,1.91269 17.84506,-0.52659 z m -80.20197,-4.10828 c 0,-0.63093 -1.84357,-6.59343 -4.09683,-13.25 -3.03097,-8.95409 -4.7754,-12.62318 -6.70503,-14.10285 -1.43452,-1.1 -7.26627,-6.3875 -12.95944,-11.75 -5.69318,-5.3625 -10.88842,-9.74653 -11.54497,-9.7423 -1.57533,0.0102 -5.96301,7.74757 -5.14449,9.07198 0.3504,0.56695 4.42989,3.52872 9.06554,6.5817 4.63565,3.05299 8.86873,6.37354 9.40684,7.37901 2.54459,4.75462 0.53311,11.12607 -5.68565,18.00949 -2.47965,2.74468 -3.14137,4.06234 -2.19343,4.36771 3.47498,1.11942 21.94905,3.82415 22.48173,3.29148 0.33034,-0.33035 -0.16374,-4.03627 -1.09795,-8.23539 -0.93422,-4.19911 -1.49904,-7.83429 -1.25517,-8.07816 0.3993,-0.3993 4.72885,10.48861 4.72885,11.89205 0,0.32023 0.43886,1.73653 0.97525,3.14733 0.96717,2.54384 4.02475,3.62106 4.02475,1.41795 z m 153.93577,-0.39936 c 3.53967,-0.83432 7.02717,-2.00777 7.75,-2.60766 1.64362,-1.36409 1.71358,-6.04648 0.11423,-7.64583 -1.91955,-1.91955 -4.8,-1.45624 -4.8,0.77207 0,1.54901 -1.23349,2.31452 -5.75,3.56846 -3.1625,0.87802 -6.3125,1.77647 -7,1.99655 -0.6875,0.22008 -1.25,1.53927 -1.25,2.93154 0,3.05106 1.56995,3.19245 10.93577,0.98487 z M 266.0518,769.96934 c 6.55696,-8.87207 7.25514,-10.63455 4.89607,-12.35955 -3.19256,-2.33445 -4.24866,-1.65903 -9.07741,5.80546 -5.44511,8.41728 -5.84586,9.30898 -5.08026,11.30409 1.24795,3.25211 4.62925,1.51794 9.2616,-4.75 z m 178.82984,3.32593 c 0.31411,-0.50824 -1.03254,-4.67074 -2.99256,-9.25 -1.96002,-4.57926 -3.98081,-9.33843 -4.49065,-10.57593 -1.12313,-2.72611 -6.96986,-3.30862 -6.96986,-0.69441 0,1.66345 6.77414,18.10642 8.31965,20.19441 1.07618,1.45392 5.29765,1.67825 6.13342,0.32593 z m -10.46838,-1.32593 c -0.042,-3.42468 -2.32864,-4.32877 -18.69622,-7.39197 -9.23366,-1.72808 -17.12597,-2.93902 -17.53847,-2.69098 -0.66787,0.4016 -1.12277,5.28365 -0.5,5.36601 0.1375,0.0182 7.45,1.31917 16.25,2.89109 18.66962,3.33489 20.50518,3.4985 20.48469,1.82585 z m 25.22417,-1.37908 c 2.06034,-1.27336 -0.84123,-2.37092 -6.26788,-2.37092 -4.28415,0 -5.94098,0.37184 -5.94098,1.33333 0,0.73334 0.3375,1.67452 0.75,2.09151 0.74725,0.7554 9.89226,-0.0857 11.45886,-1.05392 z m -170.21987,-1.12092 c -0.0127,-0.86728 -11.67769,-8.25 -13.0353,-8.25 -1.34031,0 -4.34274,4.94338 -3.51129,5.78121 0.39232,0.39533 3.49078,1.2167 6.88546,1.82525 8.04354,1.44194 9.67445,1.55058 9.66113,0.64354 z m 12.37615,-2.32258 c 3.44877,-2.71281 3.63553,-8.08106 0.38486,-11.06261 -2.63983,-2.42127 -24.54128,-15.86481 -25.84605,-15.86481 -0.49027,0 -2.26485,1.89599 -3.94352,4.21332 -4.60833,6.36162 -3.8913,8.46409 4.53957,13.31089 3.85,2.21332 8.94639,5.27786 11.3253,6.81008 7.98343,5.14202 9.84597,5.49873 13.53984,2.59313 z m -10.86514,-7.92742 c 0.33992,-0.55 1.06803,-1 1.61803,-1 0.55,0 0.72189,0.45 0.38197,1 -0.33992,0.55 -1.06803,1 -1.61803,1 -0.55,0 -0.72189,-0.45 -0.38197,-1 z m -5.48635,-3.25 c 0.0327,-2.99527 1.33564,-5.75 2.71961,-5.75 1.06755,0 1.32616,0.64868 0.89703,2.25 -0.33164,1.2375 -0.60913,2.8125 -0.61664,3.5 -0.008,0.6875 -0.68865,1.25 -1.51365,1.25 -0.825,0 -1.49386,-0.5625 -1.48635,-1.25 z m -4.01365,-2.75 c 0,-0.55 0.45,-1 1,-1 0.55,0 1,0.45 1,1 0,0.55 -0.45,1 -1,1 -0.55,0 -1,-0.45 -1,-1 z m 175.68083,13.3878 c 1.19945,-0.32168 2.42252,-1.21474 2.71793,-1.98457 0.74036,-1.92934 -4.54788,-15.46393 -6.53077,-16.7147 -2.10933,-1.33053 -13.84445,1.08655 -14.57986,3.003 -0.66021,1.72047 4.37881,13.36527 6.51621,15.05847 1.64314,1.30167 8.10689,1.64879 11.87649,0.6378 z m -26.05463,-2.85609 c 0.77112,-2.00949 -2.56276,-10.43482 -4.53007,-11.44832 -2.15753,-1.1115 -27.6739,2.08716 -29.24932,3.66661 -2.34432,2.35031 0.91068,3.69406 15.43365,6.37142 17.41204,3.20997 17.64818,3.22812 18.34574,1.41029 z m 56.02146,-0.65426 c 1.8195,-1.51005 1.7077,-3.51626 -0.61502,-11.03635 -3.1418,-10.17197 -3.34837,-10.32373 -11.95808,-8.78509 -4.38978,0.7845 -7.49013,1.86338 -7.81923,2.721 -0.71389,1.86036 3.76668,16.10214 5.66218,17.99764 1.12122,1.12122 2.88178,1.3222 7.42379,0.84747 3.27471,-0.34228 6.56257,-1.12738 7.30636,-1.74467 z m 10.36868,-6.03166 c -5.02245,-17.35853 -10.01634,-28.27856 -10.01634,-21.90249 0,1.2035 -0.49547,3.11397 -1.10104,4.24549 -0.86949,1.62467 -0.50527,4.04039 1.73197,11.48729 2.66288,8.86372 3.07428,9.56657 6.85103,11.70455 2.20992,1.25101 4.16243,2.17025 4.33891,2.04276 0.17648,-0.12749 -0.63555,-3.53741 -1.80453,-7.5776 z m -164.48937,2.31383 c -0.36938,-2.18634 -1.29975,-4.80416 -2.06748,-5.81739 -1.34604,-1.77644 -1.39702,-1.772 -1.42769,0.12434 -0.0378,2.33703 3.05719,10.77778 3.71185,10.12311 0.25021,-0.2502 0.1527,-2.24373 -0.21668,-4.43006 z m -27.13964,-5.59263 c -0.86195,-2.24621 -16.49884,-12.17785 -20.35608,-12.929 -4.74608,-0.92423 -3.43614,0.20751 9.10875,7.8697 11.18521,6.83173 12.08233,7.23527 11.24733,5.0593 z m 0.11267,-4.56699 c -0.33992,-0.55 -1.15398,-0.99311 -1.80902,-0.98469 -0.71561,0.009 -0.59227,0.40223 0.30902,0.98469 1.92112,1.24153 2.2673,1.24153 1.5,0 z m 81.75,-4.14897 c 2.21425,-1.16583 2.19696,-1.55942 -0.37627,-8.56352 -3.9777,-10.82694 -9.89826,-16.27702 -17.68947,-16.28377 -4.85845,-0.004 -7.44123,1.08127 -11.43426,4.80554 -3.46408,3.23092 -3.51322,6.39311 -0.21619,13.91221 3.67206,8.37437 4.04591,8.54488 16.96619,7.73795 6.05,-0.37786 11.7875,-1.10164 12.75,-1.60841 z m -88.75,-0.45611 c -2.56146,-1.97421 -5.5,-3.59217 -5.5,-3.02831 0,0.5083 6.25783,4.60694 7,4.58474 0.275,-0.008 -0.4,-0.70862 -1.5,-1.55643 z m 58.94734,0.69029 c 0.31095,-0.50314 -4.898,-12.54064 -11.57544,-26.75 -6.67745,-14.20937 -14.0815,-30.10227 -16.45344,-35.31757 -2.37195,-5.2153 -4.80157,-9.64534 -5.39917,-9.84454 -1.57714,-0.52572 -4.01929,1.78685 -4.01929,3.80601 0,3.23303 30.7731,67.41094 32.68471,68.16462 2.57835,1.01655 4.10983,0.99773 4.76263,-0.0585 z m 52.44975,-2.10422 c 11.45746,-1.61826 11.48759,-1.94259 0.72905,-7.84722 -4.05036,-2.22297 -9.84881,-6.31247 -12.88543,-9.08777 -7.53641,-6.88785 -8.17384,-6.69813 -7.42093,2.20871 1.08742,12.86427 3.34545,16.9167 9.01627,16.18134 1.74017,-0.22566 6.49264,-0.88044 10.56104,-1.45506 z m 73.23044,-4.55981 c 1.28461,-0.79393 1.06141,-3.01949 -0.42668,-4.25449 -0.94011,-0.78022 -3.77292,-0.57059 -10.25,0.75849 -8.34096,1.71155 -8.93213,1.99514 -8.67609,4.16204 0.15112,1.27895 0.74729,2.61739 1.32484,2.97433 0.97924,0.60521 16.09825,-2.44776 18.02793,-3.64037 z m -203.14759,0.0547 c -0.69572,-0.83829 -1.52528,-1.26382 -1.84348,-0.94562 -0.3182,0.31819 0.0834,0.99718 0.8925,1.50885 2.11697,1.33881 2.39358,1.17499 0.95098,-0.56323 z m 150.02006,-0.98945 c 0,-0.83246 -0.45871,-2.29496 -1.01935,-3.25 -0.56064,-0.95504 -5.69371,-12.76143 -11.40682,-26.23643 -8.03527,-18.95207 -10.82467,-24.56754 -12.31816,-24.79826 -5.08775,-0.78597 -4.51123,1.76467 5.84879,25.87621 5.53507,12.88213 10.67795,24.88455 11.42862,26.67205 1.11637,2.65829 1.92035,3.25 4.41589,3.25 2.05752,0 3.05103,-0.49287 3.05103,-1.51357 z m 15.85898,-1.46783 c 0.7509,-0.39788 -1.61758,-1.02504 -5.29326,-1.40162 -7.35743,-0.75379 -9.32081,-0.23174 -7.47823,1.98844 0.88639,1.06803 2.47203,1.26448 6.29856,0.78032 2.81267,-0.35588 5.72549,-0.97109 6.47293,-1.36714 z m -154.58806,-5.82149 3.97832,-6.3029 -2.26998,-2.41628 c -1.24849,-1.32896 -2.64774,-2.18282 -3.10946,-1.89746 -0.46171,0.28535 -2.69917,3.64916 -4.97214,7.47513 -3.46321,5.82944 -3.92532,7.20615 -2.85267,8.49861 2.31479,2.78915 5.10772,1.16741 9.22593,-5.3571 z m 126.57831,2.80023 c -0.69302,-1.988 -3.56145,-4.73135 -8.7445,-8.36321 -4.24225,-2.97262 -9.85938,-7.79187 -12.48252,-10.70943 -3.78796,-4.21312 -4.96203,-5.00835 -5.70573,-3.86468 -1.79809,2.76512 0.18506,6.48836 6.94552,13.03976 6.47243,6.27227 18.69085,14.29461 20.2777,13.31388 0.40747,-0.25183 0.27676,-1.78917 -0.29047,-3.41632 z m -91.32173,-9.74734 c -0.0151,-7.0125 0.37709,-14.72236 0.87158,-17.13303 1.26747,-6.17893 -1.30103,-5.1617 -3.65885,1.44905 -1.34698,3.7766 -1.69424,7.397 -1.48043,15.43398 0.28184,10.59401 0.85127,13 3.07671,13 0.8957,0 1.2112,-3.37753 1.19099,-12.75 z m -6.34193,-5 c 0.31742,-8.38767 0.9014,-11.84502 2.65745,-15.73297 2.18187,-4.83074 2.19834,-5.09891 0.5391,-8.77843 -0.94133,-2.08751 -2.1999,-3.63433 -2.79682,-3.43737 -1.21082,0.39951 -15.5853,22.50178 -15.5853,23.96403 0,1.10268 13.00174,14.73474 14.05344,14.73474 0.39892,0 0.90838,-4.8375 1.13213,-10.75 z m 94.03112,4.69061 c -0.91202,-4.63757 -14.60916,-34.94061 -15.79335,-34.94061 -1.48119,0 -4.38974,5.14114 -6.36696,11.25423 -1.07889,3.33566 -0.97787,4.13674 0.90613,7.18512 3.12128,5.05033 18.00498,18.72203 19.92107,18.29886 0.88903,-0.19634 1.48893,-1.00526 1.33311,-1.7976 z m -27.21669,-10.89429 c 0,-7.76414 2.91232,-20.25606 5.02713,-21.56309 0.53508,-0.33069 0.97287,-1.26554 0.97287,-2.07743 0,-3.12278 -4.2002,0.78982 -6.69292,6.23462 -2.89056,6.31382 -4.19227,19.105 -2.40879,23.66975 1.81496,4.64529 3.10171,2.04671 3.10171,-6.26385 z m -76.24722,-13.12104 c 4.01744,-6.28391 7.56781,-11.99586 7.88971,-12.69324 0.67891,-1.47083 -1.48549,-7.23204 -2.71697,-7.23204 -0.83515,0 -11.56614,15.87046 -16.00527,23.6708 -2.33958,4.11105 -2.34631,4.20093 -0.46991,6.27433 1.04702,1.15694 2.3749,1.94646 2.95083,1.75448 0.57594,-0.19198 4.33416,-5.49043 8.35161,-11.77433 z m 30.118,-17.9172 c 7.33919,-5.00969 16.34863,-8.42957 27.7541,-10.53515 4.88131,-0.90115 9.88762,-2.28658 11.12512,-3.07874 2.20821,-1.41354 2.9802,-3.8432 1.5,-4.72085 -0.86666,-0.51387 -20.68011,4.33684 -30.25,7.40578 -9.6316,3.08872 -19,7.79151 -19,9.5377 0,1.63887 1.77123,5.38318 2.54649,5.38318 0.26187,0 3.1078,-1.79636 6.32429,-3.99192 z m -3.59803,-8.97771 c 9.25024,-4.19426 27.09043,-9.43305 44.33726,-13.01969 8.115,-1.68759 15.32078,-3.53827 16.01283,-4.11263 2.11904,-1.75864 0.40679,-3.89805 -3.11975,-3.89805 -10.97497,0 -57.47858,12.52332 -65.22849,17.56589 -1.9296,1.25552 -2.07442,1.77936 -1.08949,3.94105 0.62476,1.37118 1.45145,2.49306 1.83709,2.49306 0.38564,0 3.64839,-1.33633 7.25055,-2.96963 z m 72.22725,-12.03037 c 0.35052,-0.56716 -0.48962,-1 -1.94098,-1 -1.40746,0 -2.55902,0.45 -2.55902,1 0,0.55 0.87344,1 1.94098,1 1.06754,0 2.2191,-0.45 2.55902,-1 z m 25.92857,-0.57143 c 2.79893,-2.79892 1.68736,-6.67487 -6.08806,-21.22851 -6.43064,-12.03656 -7.97069,-14.25246 -9.72998,-14 -3.30878,0.47482 -2.99771,2.82461 1.71937,12.98784 3.94266,8.4947 4.74521,9.57712 7.51097,10.13027 4.28862,0.85773 7.43882,4.18603 6.60931,6.98298 -0.89551,3.01947 -3.29022,4.69885 -6.70033,4.69885 -1.65728,0 -2.607,0.42212 -2.24985,1 0.96911,1.56805 7.18704,1.1701 8.92857,-0.57143 z m -3.7644,-4.99579 c 0.33077,-0.86197 0.20414,-1.96175 -0.28139,-2.44396 -1.06797,-1.06068 -14.4162,-3.28874 -15.17238,-2.53255 -0.29441,0.2944 -0.0348,1.63367 0.57685,2.97614 0.8327,1.82758 2.06699,2.54017 4.91244,2.83612 8.0618,0.83849 9.36392,0.72928 9.96448,-0.83575 z m -18.66417,-1.89527 c 0,-1.93542 -3.98427,-12.53751 -4.71161,-12.53751 -0.31235,0 -1.11494,0.74812 -1.78354,1.66248 -1.82236,2.49223 -4.71145,1.00887 -3.94932,-2.02772 0.44781,-1.78419 0.0325,-2.8099 -1.6009,-3.95399 -1.73518,-1.21536 -2.0598,-2.1256 -1.52211,-4.26794 0.63819,-2.54273 -0.46564,-4.35225 -2.68252,-4.39752 -1.60218,-0.0327 -0.60938,5.68849 1.68274,9.69715 1.32476,2.31685 2.7345,5.24185 3.13275,6.5 0.39825,1.25815 1.54294,4.20004 2.54376,6.53754 1.65076,3.85549 2.14786,4.25 5.35521,4.25 2.43573,0 3.53554,-0.45494 3.53554,-1.46249 z m -23.53954,-5.08345 c 1.9222,-1.4534 1.92476,-1.57476 0.1311,-6.2182 -1.00615,-2.60472 -2.07312,-5.86086 -2.37103,-7.23586 -0.7786,-3.59354 -4.29579,-8 -6.38554,-8 -0.98388,0 -2.5162,1.11003 -3.40514,2.46672 -1.51967,2.3193 -1.45326,2.96177 1.11118,10.75 1.50009,4.5558 2.91859,8.62078 3.15222,9.03328 0.72241,1.2755 5.70258,0.76516 7.76721,-0.79594 z m 10.53954,-0.24179 c 0,-0.43325 -1.6158,-4.59575 -3.59067,-9.25 -1.97486,-4.65425 -3.82735,-9.24977 -4.11663,-10.21227 -0.61568,-2.04851 -2.85682,-2.32826 -3.57884,-0.44673 -0.27506,0.71681 0.70858,5.10063 2.18586,9.74183 2.05519,6.45683 3.26301,8.73056 5.14313,9.68199 2.86237,1.44849 3.95715,1.58272 3.95715,0.48518 z M 413.509,636.97174 c -2.5575,-8.01284 -3.59703,-9.7524 -5.82787,-9.7524 -2.05074,0 -1.19494,3.89236 2.74913,12.50369 2.33084,5.08906 3.39402,6.5006 4.25087,5.64375 0.85686,-0.85686 0.5637,-2.95654 -1.17213,-8.39504 z m 8.91957,8.87203 c 0,-0.20656 -1.11272,-2.89164 -2.47272,-5.96683 -1.36,-3.07519 -3.15057,-7.21357 -3.97904,-9.1964 -0.82848,-1.98283 -1.93747,-3.33868 -2.46443,-3.013 -0.81817,0.50566 3.47706,14.41423 5.42447,17.56519 0.57062,0.92328 3.49172,1.43446 3.49172,0.61104 z m -16.87793,-13.29943 c -0.87155,-1.49877 -1.06669,-1.54197 -1.09166,-0.24167 -0.0323,1.68408 1.01919,3.2004 1.72792,2.49167 0.23375,-0.23375 -0.0526,-1.24625 -0.63626,-2.25 z m -8.76044,-7.825 c 0.31658,-0.825 0.13972,-1.5 -0.39301,-1.5 -0.53274,0 -0.96862,0.675 -0.96862,1.5 0,0.825 0.17686,1.5 0.39301,1.5 0.21616,0 0.65203,-0.675 0.96862,-1.5 z m -190.36163,196 c 1.375,-0.78602 2.95,-1.42913 3.5,-1.42913 0.55,0 -0.125,0.64311 -1.5,1.42913 -1.375,0.78602 -2.95,1.42913 -3.5,1.42913 -0.55,0 0.125,-0.64311 1.5,-1.42913 z m 23.71025,-12.5 c 0.36677,-1.40252 0.0307,-2 -1.125,-2 -0.90641,0 -1.90704,-0.675 -2.22362,-1.5 -0.31659,-0.825 -1.42746,-1.5 -2.46862,-1.5 -4.00281,0 -0.60058,-7.52961 4.16381,-9.2151 1.13264,-0.40069 0.90524,-1.10444 -1.05682,-3.27059 l -2.5,-2.76005 4.25145,2.14393 c 10.90631,5.49987 21.90277,6.17736 33.80419,2.08267 6.87734,-2.36615 6.92795,-0.62036 0.0841,2.9016 -6.00771,3.09168 -17.03628,3.9174 -23.88976,1.78866 -5.1766,-1.60789 -5.49139,-1.32129 -3.25616,2.96457 1.95985,3.75785 1.89844,4.59589 -0.56642,7.72945 -2.52347,3.20807 -6.00073,3.6312 -5.21717,0.63486 z m 3.53918,-8.87982 c -2.20868,-2.972 -7.24943,-4.18578 -7.24943,-1.74562 0,0.82907 0.45734,1.79006 1.01631,2.13552 0.55897,0.34546 0.78893,0.99603 0.51101,1.44571 -0.78432,1.26907 2.03806,3.14822 3.74478,2.49329 0.83908,-0.32199 1.89806,0.008 2.35329,0.73275 0.62862,1.00113 0.91711,0.86605 1.19947,-0.56165 0.20449,-1.0339 -0.50446,-3.0589 -1.57543,-4.5 z m 63.75057,-0.70683 c 0,-1.757 2.7933,-4.95338 3.61268,-4.134 0.42692,0.42691 -0.21129,1.76371 -1.41824,2.97065 -1.20694,1.20694 -2.19444,1.73045 -2.19444,1.16335 z m -9.84296,-3.11991 c -1.30943,-2.4467 -1.53517,-4.64517 -0.40526,-3.94685 0.41348,0.25555 2.77598,0.58522 5.25,0.73261 5.61116,0.33427 6.39733,0.73497 4.92433,2.50983 -1.42369,1.71544 -5.53164,1.85825 -6.5396,0.22735 -0.50148,-0.81143 -0.94234,-0.5826 -1.40197,0.72769 -0.64022,1.82513 -0.72263,1.81382 -1.8275,-0.25063 z m -47.393,-22.28915 c -9.1576,-2.7574 -15.585,-11.99805 -14.39322,-20.69307 1.61657,-11.79415 14.04201,-17.62882 24.26335,-11.39345 4.55482,2.7786 8.46534,8.40522 9.09277,13.08308 0.49134,3.66325 0.0527,4.79216 -4.33445,11.15507 -5.85663,8.4942 -8.23885,9.7723 -14.62845,7.84837 z m 78.73596,-215.00429 c -2,-0.85943 -2,-0.85943 0,-0.85943 1.1,0 2.9,0.38674 4,0.85943 2,0.85943 2,0.85943 0,0.85943 -1.1,0 -2.9,-0.38674 -4,-0.85943 z m -9,-2 c -2.69472,-0.68569 -2.7456,-0.76527 -0.5,-0.78201 1.375,-0.0102 3.625,0.34166 5,0.78201 1.95899,0.62738 2.0672,0.79661 0.5,0.782 -1.1,-0.0102 -3.35,-0.36215 -5,-0.782 z m -9.22917,-1.60417 c 0.33229,-0.33229 1.19479,-0.36781 1.91667,-0.0789 0.79773,0.31923 0.56078,0.55619 -0.60417,0.60417 -1.05416,0.0434 -1.64479,-0.19293 -1.3125,-0.52522 z"
         id="path6319" />
    </g>
  </g>
</svg>
