<?xml version="1.0" encoding="utf-8"?>
<!-- Generator: Adobe Illustrator 13.0.0, SVG Export Plug-In . SVG Version: 6.00 Build 14948)  -->
<!DOCTYPE svg PUBLIC "-//W3C//DTD SVG 1.1//EN" "http://www.w3.org/Graphics/SVG/1.1/DTD/svg11.dtd">
<svg version="1.1" id="Layer_1" xmlns="http://www.w3.org/2000/svg" xmlns:xlink="http://www.w3.org/1999/xlink" x="0px" y="0px"
	 width="438.463px" height="408.78px" viewBox="0 0 438.463 408.78" enable-background="new 0 0 438.463 408.78"
	 xml:space="preserve">
<g id="XMLID_2_">
	<g>
		<path fill="#0D254C" d="M437.689,157.22c2.28,1.569-3.479,4.189-6,6C390.1,193.06,343.66,224.4,302.17,255
			c16.42,50.761,33.32,101.05,49.75,151.811c-44.61-30.58-88.88-61.5-132.95-92.63c-45.81,30.81-89.88,63.369-135.52,94.35
			c17-50.48,33.05-101.9,49.75-152.67c-42.39-34.24-92.27-65.55-132.95-98.64c54.61,0,109.22,0,163.83,0
			c18.55-51.49,35.24-104.86,53.17-156.97c18.42,51.63,34.72,105.38,53.18,156.97C326.189,157.22,381.939,157.22,437.689,157.22z
			 M401.67,167.51c-46.62-0.011-97.77,0.01-141.53,0c-13.39-43.79-27.81-86.561-43.74-127.8c-14.25,43.22-27.9,87.04-43.75,128.66
			c-44.88,0-89.77,0-134.66,0c33.04,27.86,75.1,54.13,109.79,83.2c-13.61,41.28-26.95,82.83-40.31,124.37
			c37.87-24.74,73.65-51.58,111.5-76.34c37.05,24.699,72.41,51.1,109.79,75.479c-13.609-41.58-27.57-82.8-41.17-124.37
			C323.34,220.7,365.21,196.82,401.67,167.51z"/>
		<path fill="#FFFFFF" d="M260.14,167.51c43.76,0.01,94.91-0.011,141.53,0c-36.46,29.31-78.33,53.189-114.08,83.199
			c13.6,41.57,27.561,82.79,41.17,124.37c-37.38-24.38-72.74-50.78-109.79-75.479c-37.85,24.76-73.63,51.6-111.5,76.34
			c13.36-41.54,26.7-83.09,40.31-124.37c-34.69-29.07-76.75-55.34-109.79-83.2c44.89,0,89.78,0,134.66,0
			c15.85-41.62,29.5-85.44,43.75-128.66C232.33,80.95,246.75,123.72,260.14,167.51z M374.22,176.94c-39.97,2.2-79.79-0.771-120.94,0
			c-11.36-36.95-23.08-73.55-36.03-108.93c-13.96,35.5-21.04,77.89-38.59,109.79c-36.88,0-73.77,0-110.65,0
			c26.88,23.15,62.84,44.66,90.92,69.48c-11.86,35.03-23.1,70.67-35.17,105.5c32.28-21.2,63.03-43.91,95.21-65.19
			c30.63,21.4,60.72,43.351,91.78,64.33c-10.51-36.1-23.16-70.04-33.45-106.359C308.96,222.04,343.15,201.06,374.22,176.94z"/>
		<path fill="#0D254C" d="M253.28,176.94c41.15-0.771,80.97,2.2,120.94,0c-31.069,24.12-65.26,45.1-96.92,68.62
			c10.29,36.319,22.94,70.26,33.45,106.359c-31.06-20.979-61.15-42.93-91.78-64.33c-32.18,21.28-62.93,43.99-95.21,65.19
			c12.07-34.83,23.31-70.47,35.17-105.5c-28.08-24.82-64.04-46.33-90.92-69.48c36.88,0,73.77,0,110.65,0
			c17.55-31.899,24.63-74.29,38.59-109.79C230.2,103.39,241.92,139.99,253.28,176.94z"/>
	</g>
	<g>
	</g>
</g>
</svg>
