<?xml version="1.0" encoding="utf-8"?>
<!-- Generator: Adobe Illustrator 12.0.0, SVG Export Plug-In . SVG Version: 6.00 Build 51448)  -->
<!DOCTYPE svg PUBLIC "-//W3C//DTD SVG 1.1//EN" "http://www.w3.org/Graphics/SVG/1.1/DTD/svg11.dtd" [
	<!ENTITY ns_svg "http://www.w3.org/2000/svg">
	<!ENTITY ns_xlink "http://www.w3.org/1999/xlink">
]>
<svg  version="1.1" id="Layer_1" xmlns="&ns_svg;" xmlns:xlink="&ns_xlink;" width="275" height="121.678"
	 viewBox="0 0 275 121.678" overflow="visible" enable-background="new 0 0 275 121.678" xml:space="preserve">
<g>
	<path fill="#FFFFFF" d="M230.469,99.775c-12.532-2.507-28.987-3.166-35.935-3.166L29.158,96.639c-10.288,0-20.925,0-26.386-8.407
		c-5.54-8.534-2.529-16.931,6.811-33.73C10.279,53.253,38.604,0,38.604,0s2.894,3.595,5.81,5.882
		c2.879,2.259,5.843,3.462,13.733,3.462c14.018,0,104.436-0.199,105.359-0.201c18.353,0,36.893,1.898,48.905,15.073
		c6.239,0.667,26.37,3.327,42.959,11.26c9.71,4.64,16.113,11.569,18.533,20.029c0.731,2.561,1.097,5.248,1.097,8.044
		c0,8.027-3.009,16.927-8.905,26.178c-12.46,19.536-23.949,26.371-24.467,26.736c-7.076,4.979-13.936,5.214-13.936,5.214
		s6.176-7.024,8.26-14.051C238.037,100.606,230.469,99.775,230.469,99.775L230.469,99.775z"/>
	<path fill="#06192E" d="M253.325,39.757c-18.912-9.042-43.207-10.996-43.207-10.996c-10.598-12.952-28.508-14.874-46.612-14.874
		c0,0-91.175,0.204-105.359,0.204c-16.508,0-18.168-6.55-18.168-6.55L17.853,48.981c0,0,39.384,0,57.469,0
		c18.085,0,18.993-1.81,30.991-10.635c12.741-9.374,22.913-12.764,34.953-12.764c12.034,0,20.002,2.712,33.396,8.648
		c13.402,5.932,20.521,8.817,28.494,5.423c0,0-6.275,8.478-25.268,0.508c-18.989-7.968-24.073-9.664-35.606-9.664
		c-11.377,0-24.411,5.459-40.725,21.741L121,67.885c0,0-4.5,6.948-7.459,11.387c-2.953,4.435-2.679,7.401-1.103,9.564
		c1.58,2.174,3.568,3.151,10.764,3.151c7.197,0,64.877-0.126,71.332-0.126c5.611,0,23.162,0.521,36.86,3.259
		c18.193,3.634,6.459,18.981,6.459,18.981s12.183-8.023,24.242-26.93C275.547,66.078,272.231,48.802,253.325,39.757L253.325,39.757z
		"/>
	<path fill="#FFFFFF" d="M219.911,43.157c-8.601-2.057-1.246-7.039-1.246-7.039c-12.377,2.501-16.984,12.597-18.047,15.421
		c-0.198,0.384-0.402,0.775-0.61,1.19c-6.849,13.778-13.016,13.044-24.71,13.044c-4.76,0-11.906,0-20.026,0
		c-16.221,0-23.775,8.038-31.55,21.73h9.163c8.375-12.469,14.695-15.83,31.251-16.766c37.843,0.022,68.01,10.883,83.95,19.176
		C270.758,51.844,237.109,45.538,219.911,43.157L219.911,43.157z"/>
	<path fill="#FFFFFF" d="M149.48,87.354c4.229-6.396,12.837-8.57,26.71-7.773c34.238,1.985,53.926,8.65,69.219,14.35
		c-18.86-11.041-52.468-18.997-75.828-18.923c-11.417,0.038-21.387,2.033-27.243,12.347H149.48L149.48,87.354z"/>
	<path fill="#FFFFFF" d="M186.227,49.586c-4.463,6.222-10.341,8.351-27.01,7.208c-19.39-1.317-14.386-9.489-12.13-13.511
		c0,0-0.045,0-0.065-0.006c0.618-1.135,1.676-3.068,2.746-5.015c-14.858-0.917-25.712,10.52-25.712,10.52
		c11.078,10.959,18.465,12.105,28.484,12.105c3.486,0,8.438,0,18.738,0c17.419,0,21.629-7.842,23.224-11.324
		C191.497,49.938,188.79,49.91,186.227,49.586L186.227,49.586z"/>
	<path fill="#4EAE47" d="M177.77,47.728c-0.352-0.142-0.721-0.292-1.086-0.44c-1.707,1.797-4.655,2.842-7.509,2.478
		c-3.756-0.482-5.922-3.213-4.857-6.094c0.155-0.422,0.378-0.82,0.646-1.198c-1.926-0.754-3.863-1.482-5.747-2.136
		c-3.858,6.241-6.12,10.378,7.272,11.509c8.34,0.712,10.605-0.72,12.357-3.717C178.488,47.996,178.139,47.878,177.77,47.728
		L177.77,47.728z"/>
	<path fill="#3C5179" d="M110.504,71.449c-6.908,11.997-9.649,14.749-4.798,20.441c0,0-62.583,0-76.547,0
		c-11.289,0-18.627-0.43-22.406-6.248c-3.672-5.654-2.913-11.044,6.98-28.837c0,0,53.883,0,65.085,0
		c11.206,0,14.084,0.642,20.165,5.361C105.063,66.884,110.504,71.449,110.504,71.449L110.504,71.449z"/>
</g>
</svg>
